{
 "cells": [
  {
   "metadata": {
    "ExecuteTime": {
     "end_time": "2025-02-01T15:21:25.128891Z",
     "start_time": "2025-02-01T15:21:18.663013Z"
    }
   },
   "cell_type": "code",
   "source": [
    "import pandas as pd\n",
    "import os\n",
    "import re\n",
    "import whisper"
   ],
   "id": "c472f5b99b4be8f9",
   "outputs": [],
   "execution_count": 1
  },
  {
   "metadata": {
    "ExecuteTime": {
     "end_time": "2025-02-01T09:14:29.480653Z",
     "start_time": "2025-02-01T09:12:28.807595Z"
    }
   },
   "cell_type": "code",
   "source": "model = whisper.load_model(\"base\")",
   "id": "9580fd63d2aac99d",
   "outputs": [
    {
     "name": "stderr",
     "output_type": "stream",
     "text": [
      "100%|███████████████████████████████████████| 139M/139M [01:59<00:00, 1.22MiB/s]\n"
     ]
    }
   ],
   "execution_count": 2
  },
  {
   "metadata": {
    "ExecuteTime": {
     "end_time": "2025-02-01T15:21:25.139999Z",
     "start_time": "2025-02-01T15:21:25.135376Z"
    }
   },
   "cell_type": "code",
   "source": [
    "# Global variable\n",
    "count = 0\n",
    "\n",
    "# Function to extract speech text from a video\n",
    "\n",
    "def extract_text_from_video(video_path):\n",
    "    global count\n",
    "    try:\n",
    "        result = model.transcribe(video_path)\n",
    "        count += 1\n",
    "        print((count/512)*100, \"%\")\n",
    "        return result[\"text\"]\n",
    "    except Exception as e:\n",
    "        print(f\"Error processing {video_path}: {e}\")\n",
    "        return \"\""
   ],
   "id": "736cc04fd9fe428d",
   "outputs": [],
   "execution_count": 2
  },
  {
   "metadata": {
    "ExecuteTime": {
     "end_time": "2025-02-01T15:21:25.738840Z",
     "start_time": "2025-02-01T15:21:25.309050Z"
    }
   },
   "cell_type": "code",
   "source": [
    "base_dir = os.getcwd()  # Get the script's directory\n",
    "output_dir = os.path.join(base_dir, \"..\", \"..\", \"output\")\n",
    "\n",
    "file_path = os.path.join(output_dir, \"data_with_OCR_text.xlsx\")\n",
    "df = pd.read_excel(file_path)"
   ],
   "id": "3307b341b6336053",
   "outputs": [],
   "execution_count": 3
  },
  {
   "metadata": {
    "ExecuteTime": {
     "end_time": "2025-02-01T12:52:29.873822Z",
     "start_time": "2025-02-01T10:02:58.678139Z"
    }
   },
   "cell_type": "code",
   "source": [
    "# Apply Whisper transcription only to MP4 files\n",
    "df['Extracted_Text_from_Video'] = df['Media File'].apply(\n",
    "    lambda x: extract_text_from_video(x) if pd.notna(x) and x.lower().endswith('.mp4') else \"\"\n",
    ")"
   ],
   "id": "36d48f8f348fb7fc",
   "outputs": [
    {
     "name": "stderr",
     "output_type": "stream",
     "text": [
      "C:\\Users\\Hp\\Desktop\\Data Science\\My Projects\\FakeNewsDetection\\.venv\\Lib\\site-packages\\whisper\\transcribe.py:126: UserWarning: FP16 is not supported on CPU; using FP32 instead\n",
      "  warnings.warn(\"FP16 is not supported on CPU; using FP32 instead\")\n"
     ]
    },
    {
     "name": "stdout",
     "output_type": "stream",
     "text": [
      "0.1953125 %\n",
      "0.390625 %\n",
      "0.5859375 %\n",
      "0.78125 %\n",
      "0.9765625 %\n",
      "1.171875 %\n",
      "1.3671875 %\n",
      "1.5625 %\n",
      "1.7578125 %\n",
      "1.953125 %\n",
      "2.1484375 %\n",
      "2.34375 %\n",
      "Error processing D:\\media\\IsraelWarLive_13362.mp4: Failed to load audio: ffmpeg version 2025-01-22-git-e20ee9f9ae-full_build-www.gyan.dev Copyright (c) 2000-2025 the FFmpeg developers\r\n",
      "  built with gcc 14.2.0 (Rev1, Built by MSYS2 project)\r\n",
      "  configuration: --enable-gpl --enable-version3 --enable-static --disable-w32threads --disable-autodetect --enable-fontconfig --enable-iconv --enable-gnutls --enable-lcms2 --enable-libxml2 --enable-gmp --enable-bzlib --enable-lzma --enable-libsnappy --enable-zlib --enable-librist --enable-libsrt --enable-libssh --enable-libzmq --enable-avisynth --enable-libbluray --enable-libcaca --enable-libdvdnav --enable-libdvdread --enable-sdl2 --enable-libaribb24 --enable-libaribcaption --enable-libdav1d --enable-libdavs2 --enable-libopenjpeg --enable-libquirc --enable-libuavs3d --enable-libxevd --enable-libzvbi --enable-libqrencode --enable-librav1e --enable-libsvtav1 --enable-libvvenc --enable-libwebp --enable-libx264 --enable-libx265 --enable-libxavs2 --enable-libxeve --enable-libxvid --enable-libaom --enable-libjxl --enable-libvpx --enable-mediafoundation --enable-libass --enable-frei0r --enable-libfreetype --enable-libfribidi --enable-libharfbuzz --enable-liblensfun --enable-libvidstab --enable-libvmaf --enable-libzimg --enable-amf --enable-cuda-llvm --enable-cuvid --enable-dxva2 --enable-d3d11va --enable-d3d12va --enable-ffnvcodec --enable-libvpl --enable-nvdec --enable-nvenc --enable-vaapi --enable-libshaderc --enable-vulkan --enable-libplacebo --enable-opencl --enable-libcdio --enable-libgme --enable-libmodplug --enable-libopenmpt --enable-libopencore-amrwb --enable-libmp3lame --enable-libshine --enable-libtheora --enable-libtwolame --enable-libvo-amrwbenc --enable-libcodec2 --enable-libilbc --enable-libgsm --enable-liblc3 --enable-libopencore-amrnb --enable-libopus --enable-libspeex --enable-libvorbis --enable-ladspa --enable-libbs2b --enable-libflite --enable-libmysofa --enable-librubberband --enable-libsoxr --enable-chromaprint\r\n",
      "  libavutil      59. 55.100 / 59. 55.100\r\n",
      "  libavcodec     61. 31.101 / 61. 31.101\r\n",
      "  libavformat    61.  9.106 / 61.  9.106\r\n",
      "  libavdevice    61.  4.100 / 61.  4.100\r\n",
      "  libavfilter    10.  6.101 / 10.  6.101\r\n",
      "  libswscale      8. 13.100 /  8. 13.100\r\n",
      "  libswresample   5.  4.100 /  5.  4.100\r\n",
      "  libpostproc    58.  4.100 / 58.  4.100\r\n",
      "Input #0, mov,mp4,m4a,3gp,3g2,mj2, from 'D:\\media\\IsraelWarLive_13362.mp4':\r\n",
      "  Metadata:\r\n",
      "    major_brand     : isom\r\n",
      "    minor_version   : 512\r\n",
      "    compatible_brands: isomiso2avc1mp41\r\n",
      "    creation_time   : 2025-01-20T20:24:06.000000Z\r\n",
      "  Duration: 00:00:07.10, start: 0.000000, bitrate: 706 kb/s\r\n",
      "  Stream #0:0[0x1](eng): Video: h264 (Baseline) (avc1 / 0x31637661), yuv420p(tv, smpte170m/bt470bg/smpte170m, progressive), 576x400, 704 kb/s, 30 fps, 30 tbr, 90k tbn (default)\r\n",
      "    Metadata:\r\n",
      "      creation_time   : 2025-01-20T20:24:06.000000Z\r\n",
      "      handler_name    : VideoHandle\r\n",
      "      vendor_id       : [0][0][0][0]\r\n",
      "Output #0, s16le, to 'pipe:':\r\n",
      "[out#0/s16le @ 0000017f64fe8bc0] Output file does not contain any stream\r\n",
      "Error opening output file -.\r\n",
      "Error opening output files: Invalid argument\r\n",
      "\n",
      "2.5390625 %\n",
      "2.734375 %\n",
      "2.9296875 %\n",
      "3.125 %\n",
      "3.3203125 %\n",
      "3.515625 %\n",
      "3.7109375 %\n",
      "3.90625 %\n",
      "4.1015625 %\n",
      "4.296875 %\n",
      "4.4921875 %\n",
      "4.6875 %\n",
      "4.8828125 %\n",
      "5.078125 %\n",
      "5.2734375 %\n",
      "5.46875 %\n",
      "5.6640625 %\n",
      "5.859375 %\n",
      "6.0546875 %\n",
      "6.25 %\n",
      "6.4453125 %\n",
      "6.640625 %\n",
      "6.8359375 %\n",
      "7.03125 %\n",
      "7.2265625 %\n",
      "7.421875 %\n",
      "7.6171875 %\n",
      "7.8125 %\n",
      "8.0078125 %\n",
      "8.203125 %\n",
      "8.3984375 %\n",
      "8.59375 %\n",
      "8.7890625 %\n",
      "8.984375 %\n",
      "9.1796875 %\n",
      "9.375 %\n",
      "9.5703125 %\n",
      "9.765625 %\n",
      "9.9609375 %\n",
      "10.15625 %\n",
      "10.3515625 %\n",
      "10.546875 %\n",
      "10.7421875 %\n",
      "10.9375 %\n",
      "11.1328125 %\n",
      "11.328125 %\n",
      "11.5234375 %\n",
      "11.71875 %\n",
      "11.9140625 %\n",
      "12.109375 %\n",
      "12.3046875 %\n",
      "12.5 %\n",
      "12.6953125 %\n",
      "12.890625 %\n",
      "13.0859375 %\n",
      "13.28125 %\n",
      "13.4765625 %\n",
      "13.671875 %\n",
      "13.8671875 %\n",
      "14.0625 %\n",
      "14.2578125 %\n",
      "14.453125 %\n",
      "14.6484375 %\n",
      "14.84375 %\n",
      "15.0390625 %\n",
      "15.234375 %\n",
      "15.4296875 %\n",
      "15.625 %\n",
      "15.8203125 %\n",
      "16.015625 %\n",
      "16.2109375 %\n",
      "16.40625 %\n",
      "16.6015625 %\n",
      "16.796875 %\n",
      "16.9921875 %\n",
      "17.1875 %\n",
      "Error processing D:\\media\\ILTVnews_2461.mp4: Failed to load audio: ffmpeg version 2025-01-22-git-e20ee9f9ae-full_build-www.gyan.dev Copyright (c) 2000-2025 the FFmpeg developers\r\n",
      "  built with gcc 14.2.0 (Rev1, Built by MSYS2 project)\r\n",
      "  configuration: --enable-gpl --enable-version3 --enable-static --disable-w32threads --disable-autodetect --enable-fontconfig --enable-iconv --enable-gnutls --enable-lcms2 --enable-libxml2 --enable-gmp --enable-bzlib --enable-lzma --enable-libsnappy --enable-zlib --enable-librist --enable-libsrt --enable-libssh --enable-libzmq --enable-avisynth --enable-libbluray --enable-libcaca --enable-libdvdnav --enable-libdvdread --enable-sdl2 --enable-libaribb24 --enable-libaribcaption --enable-libdav1d --enable-libdavs2 --enable-libopenjpeg --enable-libquirc --enable-libuavs3d --enable-libxevd --enable-libzvbi --enable-libqrencode --enable-librav1e --enable-libsvtav1 --enable-libvvenc --enable-libwebp --enable-libx264 --enable-libx265 --enable-libxavs2 --enable-libxeve --enable-libxvid --enable-libaom --enable-libjxl --enable-libvpx --enable-mediafoundation --enable-libass --enable-frei0r --enable-libfreetype --enable-libfribidi --enable-libharfbuzz --enable-liblensfun --enable-libvidstab --enable-libvmaf --enable-libzimg --enable-amf --enable-cuda-llvm --enable-cuvid --enable-dxva2 --enable-d3d11va --enable-d3d12va --enable-ffnvcodec --enable-libvpl --enable-nvdec --enable-nvenc --enable-vaapi --enable-libshaderc --enable-vulkan --enable-libplacebo --enable-opencl --enable-libcdio --enable-libgme --enable-libmodplug --enable-libopenmpt --enable-libopencore-amrwb --enable-libmp3lame --enable-libshine --enable-libtheora --enable-libtwolame --enable-libvo-amrwbenc --enable-libcodec2 --enable-libilbc --enable-libgsm --enable-liblc3 --enable-libopencore-amrnb --enable-libopus --enable-libspeex --enable-libvorbis --enable-ladspa --enable-libbs2b --enable-libflite --enable-libmysofa --enable-librubberband --enable-libsoxr --enable-chromaprint\r\n",
      "  libavutil      59. 55.100 / 59. 55.100\r\n",
      "  libavcodec     61. 31.101 / 61. 31.101\r\n",
      "  libavformat    61.  9.106 / 61.  9.106\r\n",
      "  libavdevice    61.  4.100 / 61.  4.100\r\n",
      "  libavfilter    10.  6.101 / 10.  6.101\r\n",
      "  libswscale      8. 13.100 /  8. 13.100\r\n",
      "  libswresample   5.  4.100 /  5.  4.100\r\n",
      "  libpostproc    58.  4.100 / 58.  4.100\r\n",
      "Input #0, mov,mp4,m4a,3gp,3g2,mj2, from 'D:\\media\\ILTVnews_2461.mp4':\r\n",
      "  Metadata:\r\n",
      "    major_brand     : mp42\r\n",
      "    minor_version   : 1\r\n",
      "    compatible_brands: isommp41mp42\r\n",
      "    creation_time   : 2025-01-22T10:07:26.000000Z\r\n",
      "  Duration: 00:00:20.60, start: 0.000000, bitrate: 650 kb/s\r\n",
      "  Stream #0:0[0x1](und): Video: h264 (High) (avc1 / 0x31637661), yuv420p(tv, bt709, progressive), 560x640, 647 kb/s, SAR 1:1 DAR 7:8, 12.14 fps, 30 tbr, 600 tbn (default)\r\n",
      "    Metadata:\r\n",
      "      creation_time   : 2025-01-22T10:07:26.000000Z\r\n",
      "      handler_name    : Core Media Video\r\n",
      "      vendor_id       : [0][0][0][0]\r\n",
      "Output #0, s16le, to 'pipe:':\r\n",
      "[out#0/s16le @ 00000188297b8dc0] Output file does not contain any stream\r\n",
      "Error opening output file -.\r\n",
      "Error opening output files: Invalid argument\r\n",
      "\n",
      "17.3828125 %\n",
      "17.578125 %\n",
      "17.7734375 %\n",
      "17.96875 %\n",
      "18.1640625 %\n",
      "18.359375 %\n",
      "Error processing D:\\media\\ILTVnews_2468.mp4: Failed to load audio: ffmpeg version 2025-01-22-git-e20ee9f9ae-full_build-www.gyan.dev Copyright (c) 2000-2025 the FFmpeg developers\r\n",
      "  built with gcc 14.2.0 (Rev1, Built by MSYS2 project)\r\n",
      "  configuration: --enable-gpl --enable-version3 --enable-static --disable-w32threads --disable-autodetect --enable-fontconfig --enable-iconv --enable-gnutls --enable-lcms2 --enable-libxml2 --enable-gmp --enable-bzlib --enable-lzma --enable-libsnappy --enable-zlib --enable-librist --enable-libsrt --enable-libssh --enable-libzmq --enable-avisynth --enable-libbluray --enable-libcaca --enable-libdvdnav --enable-libdvdread --enable-sdl2 --enable-libaribb24 --enable-libaribcaption --enable-libdav1d --enable-libdavs2 --enable-libopenjpeg --enable-libquirc --enable-libuavs3d --enable-libxevd --enable-libzvbi --enable-libqrencode --enable-librav1e --enable-libsvtav1 --enable-libvvenc --enable-libwebp --enable-libx264 --enable-libx265 --enable-libxavs2 --enable-libxeve --enable-libxvid --enable-libaom --enable-libjxl --enable-libvpx --enable-mediafoundation --enable-libass --enable-frei0r --enable-libfreetype --enable-libfribidi --enable-libharfbuzz --enable-liblensfun --enable-libvidstab --enable-libvmaf --enable-libzimg --enable-amf --enable-cuda-llvm --enable-cuvid --enable-dxva2 --enable-d3d11va --enable-d3d12va --enable-ffnvcodec --enable-libvpl --enable-nvdec --enable-nvenc --enable-vaapi --enable-libshaderc --enable-vulkan --enable-libplacebo --enable-opencl --enable-libcdio --enable-libgme --enable-libmodplug --enable-libopenmpt --enable-libopencore-amrwb --enable-libmp3lame --enable-libshine --enable-libtheora --enable-libtwolame --enable-libvo-amrwbenc --enable-libcodec2 --enable-libilbc --enable-libgsm --enable-liblc3 --enable-libopencore-amrnb --enable-libopus --enable-libspeex --enable-libvorbis --enable-ladspa --enable-libbs2b --enable-libflite --enable-libmysofa --enable-librubberband --enable-libsoxr --enable-chromaprint\r\n",
      "  libavutil      59. 55.100 / 59. 55.100\r\n",
      "  libavcodec     61. 31.101 / 61. 31.101\r\n",
      "  libavformat    61.  9.106 / 61.  9.106\r\n",
      "  libavdevice    61.  4.100 / 61.  4.100\r\n",
      "  libavfilter    10.  6.101 / 10.  6.101\r\n",
      "  libswscale      8. 13.100 /  8. 13.100\r\n",
      "  libswresample   5.  4.100 /  5.  4.100\r\n",
      "  libpostproc    58.  4.100 / 58.  4.100\r\n",
      "Input #0, mov,mp4,m4a,3gp,3g2,mj2, from 'D:\\media\\ILTVnews_2468.mp4':\r\n",
      "  Metadata:\r\n",
      "    major_brand     : mp42\r\n",
      "    minor_version   : 1\r\n",
      "    compatible_brands: isommp41mp42\r\n",
      "    creation_time   : 2025-01-25T09:23:51.000000Z\r\n",
      "  Duration: 00:00:18.10, start: 0.000000, bitrate: 3057 kb/s\r\n",
      "  Stream #0:0[0x1](und): Video: h264 (High) (avc1 / 0x31637661), yuv420p(tv, bt709, progressive), 1280x720, 3053 kb/s, SAR 1:1 DAR 16:9, 29.94 fps, 30 tbr, 600 tbn (default)\r\n",
      "    Metadata:\r\n",
      "      creation_time   : 2025-01-25T09:23:51.000000Z\r\n",
      "      handler_name    : Core Media Video\r\n",
      "      vendor_id       : [0][0][0][0]\r\n",
      "Output #0, s16le, to 'pipe:':\r\n",
      "[out#0/s16le @ 000001fdfd813cc0] Output file does not contain any stream\r\n",
      "Error opening output file -.\r\n",
      "Error opening output files: Invalid argument\r\n",
      "\n",
      "18.5546875 %\n",
      "18.75 %\n",
      "18.9453125 %\n",
      "19.140625 %\n",
      "19.3359375 %\n",
      "19.53125 %\n",
      "19.7265625 %\n",
      "19.921875 %\n",
      "20.1171875 %\n",
      "20.3125 %\n",
      "20.5078125 %\n",
      "20.703125 %\n",
      "20.8984375 %\n",
      "21.09375 %\n",
      "21.2890625 %\n",
      "21.484375 %\n",
      "21.6796875 %\n",
      "21.875 %\n",
      "22.0703125 %\n",
      "22.265625 %\n",
      "22.4609375 %\n",
      "22.65625 %\n",
      "22.8515625 %\n",
      "23.046875 %\n",
      "23.2421875 %\n",
      "23.4375 %\n",
      "23.6328125 %\n",
      "23.828125 %\n",
      "24.0234375 %\n",
      "24.21875 %\n",
      "24.4140625 %\n",
      "24.609375 %\n",
      "24.8046875 %\n",
      "25.0 %\n",
      "25.1953125 %\n",
      "25.390625 %\n",
      "25.5859375 %\n",
      "25.78125 %\n",
      "25.9765625 %\n",
      "26.171875 %\n",
      "26.3671875 %\n",
      "26.5625 %\n",
      "26.7578125 %\n",
      "26.953125 %\n",
      "27.1484375 %\n",
      "27.34375 %\n",
      "27.5390625 %\n",
      "27.734375 %\n",
      "27.9296875 %\n",
      "28.125 %\n",
      "28.3203125 %\n",
      "28.515625 %\n",
      "28.7109375 %\n",
      "28.90625 %\n",
      "29.1015625 %\n",
      "29.296875 %\n",
      "29.4921875 %\n",
      "29.6875 %\n",
      "29.8828125 %\n",
      "30.078125 %\n",
      "30.2734375 %\n",
      "30.46875 %\n",
      "30.6640625 %\n",
      "30.859375 %\n",
      "31.0546875 %\n",
      "Error processing D:\\media\\israel_2052.mp4: Failed to load audio: ffmpeg version 2025-01-22-git-e20ee9f9ae-full_build-www.gyan.dev Copyright (c) 2000-2025 the FFmpeg developers\r\n",
      "  built with gcc 14.2.0 (Rev1, Built by MSYS2 project)\r\n",
      "  configuration: --enable-gpl --enable-version3 --enable-static --disable-w32threads --disable-autodetect --enable-fontconfig --enable-iconv --enable-gnutls --enable-lcms2 --enable-libxml2 --enable-gmp --enable-bzlib --enable-lzma --enable-libsnappy --enable-zlib --enable-librist --enable-libsrt --enable-libssh --enable-libzmq --enable-avisynth --enable-libbluray --enable-libcaca --enable-libdvdnav --enable-libdvdread --enable-sdl2 --enable-libaribb24 --enable-libaribcaption --enable-libdav1d --enable-libdavs2 --enable-libopenjpeg --enable-libquirc --enable-libuavs3d --enable-libxevd --enable-libzvbi --enable-libqrencode --enable-librav1e --enable-libsvtav1 --enable-libvvenc --enable-libwebp --enable-libx264 --enable-libx265 --enable-libxavs2 --enable-libxeve --enable-libxvid --enable-libaom --enable-libjxl --enable-libvpx --enable-mediafoundation --enable-libass --enable-frei0r --enable-libfreetype --enable-libfribidi --enable-libharfbuzz --enable-liblensfun --enable-libvidstab --enable-libvmaf --enable-libzimg --enable-amf --enable-cuda-llvm --enable-cuvid --enable-dxva2 --enable-d3d11va --enable-d3d12va --enable-ffnvcodec --enable-libvpl --enable-nvdec --enable-nvenc --enable-vaapi --enable-libshaderc --enable-vulkan --enable-libplacebo --enable-opencl --enable-libcdio --enable-libgme --enable-libmodplug --enable-libopenmpt --enable-libopencore-amrwb --enable-libmp3lame --enable-libshine --enable-libtheora --enable-libtwolame --enable-libvo-amrwbenc --enable-libcodec2 --enable-libilbc --enable-libgsm --enable-liblc3 --enable-libopencore-amrnb --enable-libopus --enable-libspeex --enable-libvorbis --enable-ladspa --enable-libbs2b --enable-libflite --enable-libmysofa --enable-librubberband --enable-libsoxr --enable-chromaprint\r\n",
      "  libavutil      59. 55.100 / 59. 55.100\r\n",
      "  libavcodec     61. 31.101 / 61. 31.101\r\n",
      "  libavformat    61.  9.106 / 61.  9.106\r\n",
      "  libavdevice    61.  4.100 / 61.  4.100\r\n",
      "  libavfilter    10.  6.101 / 10.  6.101\r\n",
      "  libswscale      8. 13.100 /  8. 13.100\r\n",
      "  libswresample   5.  4.100 /  5.  4.100\r\n",
      "  libpostproc    58.  4.100 / 58.  4.100\r\n",
      "Input #0, mov,mp4,m4a,3gp,3g2,mj2, from 'D:\\media\\israel_2052.mp4':\r\n",
      "  Metadata:\r\n",
      "    major_brand     : isom\r\n",
      "    minor_version   : 1\r\n",
      "    compatible_brands: isomiso4\r\n",
      "    creation_time   : 2025-01-14T20:40:40.000000Z\r\n",
      "  Duration: 00:00:27.70, start: 0.000000, bitrate: 364 kb/s\r\n",
      "  Stream #0:0[0x1](und): Video: h264 (Main) (avc1 / 0x31637661), yuv420p(progressive), 352x640, 362 kb/s, SAR 1:1 DAR 11:20, 14.26 fps, 30 tbr, 900000000.00 tbn (default)\r\n",
      "    Metadata:\r\n",
      "      handler_name    : Twitter-vork muxer\r\n",
      "      vendor_id       : [0][0][0][0]\r\n",
      "Output #0, s16le, to 'pipe:':\r\n",
      "[out#0/s16le @ 000002374d658d80] Output file does not contain any stream\r\n",
      "Error opening output file -.\r\n",
      "Error opening output files: Invalid argument\r\n",
      "\n",
      "31.25 %\n",
      "31.4453125 %\n",
      "31.640625 %\n",
      "31.8359375 %\n",
      "32.03125 %\n",
      "32.2265625 %\n",
      "32.421875 %\n",
      "32.6171875 %\n",
      "32.8125 %\n",
      "33.0078125 %\n",
      "33.203125 %\n",
      "33.3984375 %\n",
      "33.59375 %\n",
      "33.7890625 %\n",
      "33.984375 %\n",
      "34.1796875 %\n",
      "34.375 %\n",
      "34.5703125 %\n",
      "34.765625 %\n",
      "34.9609375 %\n",
      "35.15625 %\n",
      "35.3515625 %\n",
      "35.546875 %\n",
      "35.7421875 %\n",
      "35.9375 %\n",
      "36.1328125 %\n",
      "36.328125 %\n",
      "36.5234375 %\n",
      "36.71875 %\n",
      "36.9140625 %\n",
      "37.109375 %\n",
      "37.3046875 %\n",
      "Error processing D:\\media\\IsraelWarLive_12867.mp4: Failed to load audio: ffmpeg version 2025-01-22-git-e20ee9f9ae-full_build-www.gyan.dev Copyright (c) 2000-2025 the FFmpeg developers\r\n",
      "  built with gcc 14.2.0 (Rev1, Built by MSYS2 project)\r\n",
      "  configuration: --enable-gpl --enable-version3 --enable-static --disable-w32threads --disable-autodetect --enable-fontconfig --enable-iconv --enable-gnutls --enable-lcms2 --enable-libxml2 --enable-gmp --enable-bzlib --enable-lzma --enable-libsnappy --enable-zlib --enable-librist --enable-libsrt --enable-libssh --enable-libzmq --enable-avisynth --enable-libbluray --enable-libcaca --enable-libdvdnav --enable-libdvdread --enable-sdl2 --enable-libaribb24 --enable-libaribcaption --enable-libdav1d --enable-libdavs2 --enable-libopenjpeg --enable-libquirc --enable-libuavs3d --enable-libxevd --enable-libzvbi --enable-libqrencode --enable-librav1e --enable-libsvtav1 --enable-libvvenc --enable-libwebp --enable-libx264 --enable-libx265 --enable-libxavs2 --enable-libxeve --enable-libxvid --enable-libaom --enable-libjxl --enable-libvpx --enable-mediafoundation --enable-libass --enable-frei0r --enable-libfreetype --enable-libfribidi --enable-libharfbuzz --enable-liblensfun --enable-libvidstab --enable-libvmaf --enable-libzimg --enable-amf --enable-cuda-llvm --enable-cuvid --enable-dxva2 --enable-d3d11va --enable-d3d12va --enable-ffnvcodec --enable-libvpl --enable-nvdec --enable-nvenc --enable-vaapi --enable-libshaderc --enable-vulkan --enable-libplacebo --enable-opencl --enable-libcdio --enable-libgme --enable-libmodplug --enable-libopenmpt --enable-libopencore-amrwb --enable-libmp3lame --enable-libshine --enable-libtheora --enable-libtwolame --enable-libvo-amrwbenc --enable-libcodec2 --enable-libilbc --enable-libgsm --enable-liblc3 --enable-libopencore-amrnb --enable-libopus --enable-libspeex --enable-libvorbis --enable-ladspa --enable-libbs2b --enable-libflite --enable-libmysofa --enable-librubberband --enable-libsoxr --enable-chromaprint\r\n",
      "  libavutil      59. 55.100 / 59. 55.100\r\n",
      "  libavcodec     61. 31.101 / 61. 31.101\r\n",
      "  libavformat    61.  9.106 / 61.  9.106\r\n",
      "  libavdevice    61.  4.100 / 61.  4.100\r\n",
      "  libavfilter    10.  6.101 / 10.  6.101\r\n",
      "  libswscale      8. 13.100 /  8. 13.100\r\n",
      "  libswresample   5.  4.100 /  5.  4.100\r\n",
      "  libpostproc    58.  4.100 / 58.  4.100\r\n",
      "Input #0, mov,mp4,m4a,3gp,3g2,mj2, from 'D:\\media\\IsraelWarLive_12867.mp4':\r\n",
      "  Metadata:\r\n",
      "    major_brand     : mp42\r\n",
      "    minor_version   : 1\r\n",
      "    compatible_brands: isommp41mp42\r\n",
      "    creation_time   : 2024-12-08T16:31:32.000000Z\r\n",
      "  Duration: 00:00:17.83, start: 0.000000, bitrate: 578 kb/s\r\n",
      "  Stream #0:0[0x1](und): Video: h264 (High) (avc1 / 0x31637661), yuv420p(tv, bt709, progressive), 640x272, 574 kb/s, SAR 1:1 DAR 40:17, 25.01 fps, 30 tbr, 600 tbn (default)\r\n",
      "    Metadata:\r\n",
      "      creation_time   : 2024-12-08T16:31:32.000000Z\r\n",
      "      handler_name    : Core Media Video\r\n",
      "      vendor_id       : [0][0][0][0]\r\n",
      "Output #0, s16le, to 'pipe:':\r\n",
      "[out#0/s16le @ 0000018845acbbc0] Output file does not contain any stream\r\n",
      "Error opening output file -.\r\n",
      "Error opening output files: Invalid argument\r\n",
      "\n",
      "Error processing D:\\media\\IsraelWarLive_12897.mp4: Failed to load audio: ffmpeg version 2025-01-22-git-e20ee9f9ae-full_build-www.gyan.dev Copyright (c) 2000-2025 the FFmpeg developers\r\n",
      "  built with gcc 14.2.0 (Rev1, Built by MSYS2 project)\r\n",
      "  configuration: --enable-gpl --enable-version3 --enable-static --disable-w32threads --disable-autodetect --enable-fontconfig --enable-iconv --enable-gnutls --enable-lcms2 --enable-libxml2 --enable-gmp --enable-bzlib --enable-lzma --enable-libsnappy --enable-zlib --enable-librist --enable-libsrt --enable-libssh --enable-libzmq --enable-avisynth --enable-libbluray --enable-libcaca --enable-libdvdnav --enable-libdvdread --enable-sdl2 --enable-libaribb24 --enable-libaribcaption --enable-libdav1d --enable-libdavs2 --enable-libopenjpeg --enable-libquirc --enable-libuavs3d --enable-libxevd --enable-libzvbi --enable-libqrencode --enable-librav1e --enable-libsvtav1 --enable-libvvenc --enable-libwebp --enable-libx264 --enable-libx265 --enable-libxavs2 --enable-libxeve --enable-libxvid --enable-libaom --enable-libjxl --enable-libvpx --enable-mediafoundation --enable-libass --enable-frei0r --enable-libfreetype --enable-libfribidi --enable-libharfbuzz --enable-liblensfun --enable-libvidstab --enable-libvmaf --enable-libzimg --enable-amf --enable-cuda-llvm --enable-cuvid --enable-dxva2 --enable-d3d11va --enable-d3d12va --enable-ffnvcodec --enable-libvpl --enable-nvdec --enable-nvenc --enable-vaapi --enable-libshaderc --enable-vulkan --enable-libplacebo --enable-opencl --enable-libcdio --enable-libgme --enable-libmodplug --enable-libopenmpt --enable-libopencore-amrwb --enable-libmp3lame --enable-libshine --enable-libtheora --enable-libtwolame --enable-libvo-amrwbenc --enable-libcodec2 --enable-libilbc --enable-libgsm --enable-liblc3 --enable-libopencore-amrnb --enable-libopus --enable-libspeex --enable-libvorbis --enable-ladspa --enable-libbs2b --enable-libflite --enable-libmysofa --enable-librubberband --enable-libsoxr --enable-chromaprint\r\n",
      "  libavutil      59. 55.100 / 59. 55.100\r\n",
      "  libavcodec     61. 31.101 / 61. 31.101\r\n",
      "  libavformat    61.  9.106 / 61.  9.106\r\n",
      "  libavdevice    61.  4.100 / 61.  4.100\r\n",
      "  libavfilter    10.  6.101 / 10.  6.101\r\n",
      "  libswscale      8. 13.100 /  8. 13.100\r\n",
      "  libswresample   5.  4.100 /  5.  4.100\r\n",
      "  libpostproc    58.  4.100 / 58.  4.100\r\n",
      "Input #0, mov,mp4,m4a,3gp,3g2,mj2, from 'D:\\media\\IsraelWarLive_12897.mp4':\r\n",
      "  Metadata:\r\n",
      "    major_brand     : isom\r\n",
      "    minor_version   : 512\r\n",
      "    compatible_brands: isomiso2avc1mp41\r\n",
      "    creation_time   : 2024-12-10T14:20:08.000000Z\r\n",
      "  Duration: 00:00:34.73, start: 0.000000, bitrate: 1425 kb/s\r\n",
      "  Stream #0:0[0x1](eng): Video: h264 (High) (avc1 / 0x31637661), yuv420p(tv, bt470bg/bt470bg/smpte170m, progressive), 848x720, 1423 kb/s, 30 fps, 30 tbr, 90k tbn (default)\r\n",
      "    Metadata:\r\n",
      "      creation_time   : 2024-12-10T14:19:46.000000Z\r\n",
      "      handler_name    : VideoHandle\r\n",
      "      vendor_id       : [0][0][0][0]\r\n",
      "Output #0, s16le, to 'pipe:':\r\n",
      "[out#0/s16le @ 000001bd15218bc0] Output file does not contain any stream\r\n",
      "Error opening output file -.\r\n",
      "Error opening output files: Invalid argument\r\n",
      "\n",
      "37.5 %\n",
      "37.6953125 %\n",
      "37.890625 %\n",
      "38.0859375 %\n",
      "38.28125 %\n",
      "38.4765625 %\n",
      "38.671875 %\n",
      "38.8671875 %\n",
      "39.0625 %\n",
      "39.2578125 %\n",
      "39.453125 %\n",
      "39.6484375 %\n",
      "39.84375 %\n",
      "40.0390625 %\n",
      "40.234375 %\n",
      "40.4296875 %\n",
      "40.625 %\n",
      "40.8203125 %\n",
      "41.015625 %\n",
      "41.2109375 %\n",
      "41.40625 %\n",
      "Error processing D:\\media\\IsraelWarLive_12967.mp4: Failed to load audio: ffmpeg version 2025-01-22-git-e20ee9f9ae-full_build-www.gyan.dev Copyright (c) 2000-2025 the FFmpeg developers\r\n",
      "  built with gcc 14.2.0 (Rev1, Built by MSYS2 project)\r\n",
      "  configuration: --enable-gpl --enable-version3 --enable-static --disable-w32threads --disable-autodetect --enable-fontconfig --enable-iconv --enable-gnutls --enable-lcms2 --enable-libxml2 --enable-gmp --enable-bzlib --enable-lzma --enable-libsnappy --enable-zlib --enable-librist --enable-libsrt --enable-libssh --enable-libzmq --enable-avisynth --enable-libbluray --enable-libcaca --enable-libdvdnav --enable-libdvdread --enable-sdl2 --enable-libaribb24 --enable-libaribcaption --enable-libdav1d --enable-libdavs2 --enable-libopenjpeg --enable-libquirc --enable-libuavs3d --enable-libxevd --enable-libzvbi --enable-libqrencode --enable-librav1e --enable-libsvtav1 --enable-libvvenc --enable-libwebp --enable-libx264 --enable-libx265 --enable-libxavs2 --enable-libxeve --enable-libxvid --enable-libaom --enable-libjxl --enable-libvpx --enable-mediafoundation --enable-libass --enable-frei0r --enable-libfreetype --enable-libfribidi --enable-libharfbuzz --enable-liblensfun --enable-libvidstab --enable-libvmaf --enable-libzimg --enable-amf --enable-cuda-llvm --enable-cuvid --enable-dxva2 --enable-d3d11va --enable-d3d12va --enable-ffnvcodec --enable-libvpl --enable-nvdec --enable-nvenc --enable-vaapi --enable-libshaderc --enable-vulkan --enable-libplacebo --enable-opencl --enable-libcdio --enable-libgme --enable-libmodplug --enable-libopenmpt --enable-libopencore-amrwb --enable-libmp3lame --enable-libshine --enable-libtheora --enable-libtwolame --enable-libvo-amrwbenc --enable-libcodec2 --enable-libilbc --enable-libgsm --enable-liblc3 --enable-libopencore-amrnb --enable-libopus --enable-libspeex --enable-libvorbis --enable-ladspa --enable-libbs2b --enable-libflite --enable-libmysofa --enable-librubberband --enable-libsoxr --enable-chromaprint\r\n",
      "  libavutil      59. 55.100 / 59. 55.100\r\n",
      "  libavcodec     61. 31.101 / 61. 31.101\r\n",
      "  libavformat    61.  9.106 / 61.  9.106\r\n",
      "  libavdevice    61.  4.100 / 61.  4.100\r\n",
      "  libavfilter    10.  6.101 / 10.  6.101\r\n",
      "  libswscale      8. 13.100 /  8. 13.100\r\n",
      "  libswresample   5.  4.100 /  5.  4.100\r\n",
      "  libpostproc    58.  4.100 / 58.  4.100\r\n",
      "Input #0, mov,mp4,m4a,3gp,3g2,mj2, from 'D:\\media\\IsraelWarLive_12967.mp4':\r\n",
      "  Metadata:\r\n",
      "    major_brand     : mp42\r\n",
      "    minor_version   : 1\r\n",
      "    compatible_brands: isommp41mp42\r\n",
      "    creation_time   : 2024-12-19T00:47:28.000000Z\r\n",
      "  Duration: 00:00:23.67, start: 0.000000, bitrate: 1543 kb/s\r\n",
      "  Stream #0:0[0x1](und): Video: h264 (High) (avc1 / 0x31637661), yuv420p(tv, bt709, progressive), 464x848, 1539 kb/s, SAR 1:1 DAR 29:53, 29.96 fps, 30 tbr, 600 tbn (default)\r\n",
      "    Metadata:\r\n",
      "      creation_time   : 2024-12-19T00:47:28.000000Z\r\n",
      "      handler_name    : Core Media Video\r\n",
      "      vendor_id       : [0][0][0][0]\r\n",
      "Output #0, s16le, to 'pipe:':\r\n",
      "[out#0/s16le @ 0000023a72b8ca80] Output file does not contain any stream\r\n",
      "Error opening output file -.\r\n",
      "Error opening output files: Invalid argument\r\n",
      "\n",
      "41.6015625 %\n",
      "41.796875 %\n",
      "41.9921875 %\n",
      "42.1875 %\n",
      "Error processing D:\\media\\IsraelWarLive_13026.mp4: Failed to load audio: ffmpeg version 2025-01-22-git-e20ee9f9ae-full_build-www.gyan.dev Copyright (c) 2000-2025 the FFmpeg developers\r\n",
      "  built with gcc 14.2.0 (Rev1, Built by MSYS2 project)\r\n",
      "  configuration: --enable-gpl --enable-version3 --enable-static --disable-w32threads --disable-autodetect --enable-fontconfig --enable-iconv --enable-gnutls --enable-lcms2 --enable-libxml2 --enable-gmp --enable-bzlib --enable-lzma --enable-libsnappy --enable-zlib --enable-librist --enable-libsrt --enable-libssh --enable-libzmq --enable-avisynth --enable-libbluray --enable-libcaca --enable-libdvdnav --enable-libdvdread --enable-sdl2 --enable-libaribb24 --enable-libaribcaption --enable-libdav1d --enable-libdavs2 --enable-libopenjpeg --enable-libquirc --enable-libuavs3d --enable-libxevd --enable-libzvbi --enable-libqrencode --enable-librav1e --enable-libsvtav1 --enable-libvvenc --enable-libwebp --enable-libx264 --enable-libx265 --enable-libxavs2 --enable-libxeve --enable-libxvid --enable-libaom --enable-libjxl --enable-libvpx --enable-mediafoundation --enable-libass --enable-frei0r --enable-libfreetype --enable-libfribidi --enable-libharfbuzz --enable-liblensfun --enable-libvidstab --enable-libvmaf --enable-libzimg --enable-amf --enable-cuda-llvm --enable-cuvid --enable-dxva2 --enable-d3d11va --enable-d3d12va --enable-ffnvcodec --enable-libvpl --enable-nvdec --enable-nvenc --enable-vaapi --enable-libshaderc --enable-vulkan --enable-libplacebo --enable-opencl --enable-libcdio --enable-libgme --enable-libmodplug --enable-libopenmpt --enable-libopencore-amrwb --enable-libmp3lame --enable-libshine --enable-libtheora --enable-libtwolame --enable-libvo-amrwbenc --enable-libcodec2 --enable-libilbc --enable-libgsm --enable-liblc3 --enable-libopencore-amrnb --enable-libopus --enable-libspeex --enable-libvorbis --enable-ladspa --enable-libbs2b --enable-libflite --enable-libmysofa --enable-librubberband --enable-libsoxr --enable-chromaprint\r\n",
      "  libavutil      59. 55.100 / 59. 55.100\r\n",
      "  libavcodec     61. 31.101 / 61. 31.101\r\n",
      "  libavformat    61.  9.106 / 61.  9.106\r\n",
      "  libavdevice    61.  4.100 / 61.  4.100\r\n",
      "  libavfilter    10.  6.101 / 10.  6.101\r\n",
      "  libswscale      8. 13.100 /  8. 13.100\r\n",
      "  libswresample   5.  4.100 /  5.  4.100\r\n",
      "  libpostproc    58.  4.100 / 58.  4.100\r\n",
      "Input #0, mov,mp4,m4a,3gp,3g2,mj2, from 'D:\\media\\IsraelWarLive_13026.mp4':\r\n",
      "  Metadata:\r\n",
      "    major_brand     : isom\r\n",
      "    minor_version   : 512\r\n",
      "    compatible_brands: isomiso2avc1mp41\r\n",
      "    creation_time   : 2024-12-23T23:56:47.000000Z\r\n",
      "  Duration: 00:00:20.87, start: 0.000000, bitrate: 1343 kb/s\r\n",
      "  Stream #0:0[0x1](eng): Video: h264 (Baseline) (avc1 / 0x31637661), yuv420p(tv, smpte170m/bt470bg/smpte170m, progressive), 480x640, 1342 kb/s, 29.61 fps, 31.58 tbr, 90k tbn (default)\r\n",
      "    Metadata:\r\n",
      "      creation_time   : 2024-12-23T23:56:39.000000Z\r\n",
      "      handler_name    : VideoHandle\r\n",
      "      vendor_id       : [0][0][0][0]\r\n",
      "Output #0, s16le, to 'pipe:':\r\n",
      "[out#0/s16le @ 00000218d6a8bbc0] Output file does not contain any stream\r\n",
      "Error opening output file -.\r\n",
      "Error opening output files: Invalid argument\r\n",
      "\n",
      "42.3828125 %\n",
      "42.578125 %\n",
      "42.7734375 %\n",
      "42.96875 %\n",
      "43.1640625 %\n",
      "43.359375 %\n",
      "43.5546875 %\n",
      "43.75 %\n",
      "43.9453125 %\n",
      "Error processing D:\\media\\IsraelWarLive_13097.mp4: Failed to load audio: ffmpeg version 2025-01-22-git-e20ee9f9ae-full_build-www.gyan.dev Copyright (c) 2000-2025 the FFmpeg developers\r\n",
      "  built with gcc 14.2.0 (Rev1, Built by MSYS2 project)\r\n",
      "  configuration: --enable-gpl --enable-version3 --enable-static --disable-w32threads --disable-autodetect --enable-fontconfig --enable-iconv --enable-gnutls --enable-lcms2 --enable-libxml2 --enable-gmp --enable-bzlib --enable-lzma --enable-libsnappy --enable-zlib --enable-librist --enable-libsrt --enable-libssh --enable-libzmq --enable-avisynth --enable-libbluray --enable-libcaca --enable-libdvdnav --enable-libdvdread --enable-sdl2 --enable-libaribb24 --enable-libaribcaption --enable-libdav1d --enable-libdavs2 --enable-libopenjpeg --enable-libquirc --enable-libuavs3d --enable-libxevd --enable-libzvbi --enable-libqrencode --enable-librav1e --enable-libsvtav1 --enable-libvvenc --enable-libwebp --enable-libx264 --enable-libx265 --enable-libxavs2 --enable-libxeve --enable-libxvid --enable-libaom --enable-libjxl --enable-libvpx --enable-mediafoundation --enable-libass --enable-frei0r --enable-libfreetype --enable-libfribidi --enable-libharfbuzz --enable-liblensfun --enable-libvidstab --enable-libvmaf --enable-libzimg --enable-amf --enable-cuda-llvm --enable-cuvid --enable-dxva2 --enable-d3d11va --enable-d3d12va --enable-ffnvcodec --enable-libvpl --enable-nvdec --enable-nvenc --enable-vaapi --enable-libshaderc --enable-vulkan --enable-libplacebo --enable-opencl --enable-libcdio --enable-libgme --enable-libmodplug --enable-libopenmpt --enable-libopencore-amrwb --enable-libmp3lame --enable-libshine --enable-libtheora --enable-libtwolame --enable-libvo-amrwbenc --enable-libcodec2 --enable-libilbc --enable-libgsm --enable-liblc3 --enable-libopencore-amrnb --enable-libopus --enable-libspeex --enable-libvorbis --enable-ladspa --enable-libbs2b --enable-libflite --enable-libmysofa --enable-librubberband --enable-libsoxr --enable-chromaprint\r\n",
      "  libavutil      59. 55.100 / 59. 55.100\r\n",
      "  libavcodec     61. 31.101 / 61. 31.101\r\n",
      "  libavformat    61.  9.106 / 61.  9.106\r\n",
      "  libavdevice    61.  4.100 / 61.  4.100\r\n",
      "  libavfilter    10.  6.101 / 10.  6.101\r\n",
      "  libswscale      8. 13.100 /  8. 13.100\r\n",
      "  libswresample   5.  4.100 /  5.  4.100\r\n",
      "  libpostproc    58.  4.100 / 58.  4.100\r\n",
      "Input #0, mov,mp4,m4a,3gp,3g2,mj2, from 'D:\\media\\IsraelWarLive_13097.mp4':\r\n",
      "  Metadata:\r\n",
      "    major_brand     : mp42\r\n",
      "    minor_version   : 1\r\n",
      "    compatible_brands: isommp41mp42\r\n",
      "    creation_time   : 2024-12-30T21:17:42.000000Z\r\n",
      "  Duration: 00:00:04.80, start: 0.000000, bitrate: 1521 kb/s\r\n",
      "  Stream #0:0[0x1](und): Video: h264 (High) (avc1 / 0x31637661), yuv420p(tv, bt709, progressive), 480x848, 1517 kb/s, SAR 1:1 DAR 30:53, 29.79 fps, 30 tbr, 600 tbn (default)\r\n",
      "    Metadata:\r\n",
      "      creation_time   : 2024-12-30T21:17:42.000000Z\r\n",
      "      handler_name    : Core Media Video\r\n",
      "      vendor_id       : [0][0][0][0]\r\n",
      "Output #0, s16le, to 'pipe:':\r\n",
      "[out#0/s16le @ 000002814348bbc0] Output file does not contain any stream\r\n",
      "Error opening output file -.\r\n",
      "Error opening output files: Invalid argument\r\n",
      "\n",
      "Error processing D:\\media\\IsraelWarLive_13095.mp4: Failed to load audio: ffmpeg version 2025-01-22-git-e20ee9f9ae-full_build-www.gyan.dev Copyright (c) 2000-2025 the FFmpeg developers\r\n",
      "  built with gcc 14.2.0 (Rev1, Built by MSYS2 project)\r\n",
      "  configuration: --enable-gpl --enable-version3 --enable-static --disable-w32threads --disable-autodetect --enable-fontconfig --enable-iconv --enable-gnutls --enable-lcms2 --enable-libxml2 --enable-gmp --enable-bzlib --enable-lzma --enable-libsnappy --enable-zlib --enable-librist --enable-libsrt --enable-libssh --enable-libzmq --enable-avisynth --enable-libbluray --enable-libcaca --enable-libdvdnav --enable-libdvdread --enable-sdl2 --enable-libaribb24 --enable-libaribcaption --enable-libdav1d --enable-libdavs2 --enable-libopenjpeg --enable-libquirc --enable-libuavs3d --enable-libxevd --enable-libzvbi --enable-libqrencode --enable-librav1e --enable-libsvtav1 --enable-libvvenc --enable-libwebp --enable-libx264 --enable-libx265 --enable-libxavs2 --enable-libxeve --enable-libxvid --enable-libaom --enable-libjxl --enable-libvpx --enable-mediafoundation --enable-libass --enable-frei0r --enable-libfreetype --enable-libfribidi --enable-libharfbuzz --enable-liblensfun --enable-libvidstab --enable-libvmaf --enable-libzimg --enable-amf --enable-cuda-llvm --enable-cuvid --enable-dxva2 --enable-d3d11va --enable-d3d12va --enable-ffnvcodec --enable-libvpl --enable-nvdec --enable-nvenc --enable-vaapi --enable-libshaderc --enable-vulkan --enable-libplacebo --enable-opencl --enable-libcdio --enable-libgme --enable-libmodplug --enable-libopenmpt --enable-libopencore-amrwb --enable-libmp3lame --enable-libshine --enable-libtheora --enable-libtwolame --enable-libvo-amrwbenc --enable-libcodec2 --enable-libilbc --enable-libgsm --enable-liblc3 --enable-libopencore-amrnb --enable-libopus --enable-libspeex --enable-libvorbis --enable-ladspa --enable-libbs2b --enable-libflite --enable-libmysofa --enable-librubberband --enable-libsoxr --enable-chromaprint\r\n",
      "  libavutil      59. 55.100 / 59. 55.100\r\n",
      "  libavcodec     61. 31.101 / 61. 31.101\r\n",
      "  libavformat    61.  9.106 / 61.  9.106\r\n",
      "  libavdevice    61.  4.100 / 61.  4.100\r\n",
      "  libavfilter    10.  6.101 / 10.  6.101\r\n",
      "  libswscale      8. 13.100 /  8. 13.100\r\n",
      "  libswresample   5.  4.100 /  5.  4.100\r\n",
      "  libpostproc    58.  4.100 / 58.  4.100\r\n",
      "Input #0, mov,mp4,m4a,3gp,3g2,mj2, from 'D:\\media\\IsraelWarLive_13095.mp4':\r\n",
      "  Metadata:\r\n",
      "    major_brand     : mp42\r\n",
      "    minor_version   : 1\r\n",
      "    compatible_brands: isommp41mp42\r\n",
      "    creation_time   : 2024-12-30T21:15:45.000000Z\r\n",
      "  Duration: 00:00:10.67, start: 0.000000, bitrate: 408 kb/s\r\n",
      "  Stream #0:0[0x1](und): Video: h264 (High) (avc1 / 0x31637661), yuv420p(tv, bt709, progressive), 272x480, 404 kb/s, SAR 1:1 DAR 17:30, 30 fps, 30 tbr, 600 tbn (default)\r\n",
      "    Metadata:\r\n",
      "      creation_time   : 2024-12-30T21:15:45.000000Z\r\n",
      "      handler_name    : Core Media Video\r\n",
      "      vendor_id       : [0][0][0][0]\r\n",
      "Output #0, s16le, to 'pipe:':\r\n",
      "[out#0/s16le @ 000001497abb9080] Output file does not contain any stream\r\n",
      "Error opening output file -.\r\n",
      "Error opening output files: Invalid argument\r\n",
      "\n",
      "44.140625 %\n",
      "44.3359375 %\n",
      "44.53125 %\n",
      "44.7265625 %\n",
      "44.921875 %\n",
      "45.1171875 %\n",
      "45.3125 %\n",
      "45.5078125 %\n",
      "45.703125 %\n",
      "45.8984375 %\n",
      "46.09375 %\n",
      "46.2890625 %\n",
      "46.484375 %\n",
      "46.6796875 %\n",
      "46.875 %\n",
      "47.0703125 %\n",
      "47.265625 %\n",
      "47.4609375 %\n",
      "47.65625 %\n",
      "47.8515625 %\n",
      "48.046875 %\n",
      "48.2421875 %\n",
      "48.4375 %\n",
      "48.6328125 %\n",
      "48.828125 %\n",
      "49.0234375 %\n",
      "49.21875 %\n",
      "49.4140625 %\n",
      "49.609375 %\n",
      "49.8046875 %\n",
      "50.0 %\n",
      "50.1953125 %\n",
      "50.390625 %\n",
      "50.5859375 %\n",
      "50.78125 %\n",
      "50.9765625 %\n",
      "51.171875 %\n",
      "Error processing D:\\media\\israel_1743.mp4: Failed to load audio: ffmpeg version 2025-01-22-git-e20ee9f9ae-full_build-www.gyan.dev Copyright (c) 2000-2025 the FFmpeg developers\r\n",
      "  built with gcc 14.2.0 (Rev1, Built by MSYS2 project)\r\n",
      "  configuration: --enable-gpl --enable-version3 --enable-static --disable-w32threads --disable-autodetect --enable-fontconfig --enable-iconv --enable-gnutls --enable-lcms2 --enable-libxml2 --enable-gmp --enable-bzlib --enable-lzma --enable-libsnappy --enable-zlib --enable-librist --enable-libsrt --enable-libssh --enable-libzmq --enable-avisynth --enable-libbluray --enable-libcaca --enable-libdvdnav --enable-libdvdread --enable-sdl2 --enable-libaribb24 --enable-libaribcaption --enable-libdav1d --enable-libdavs2 --enable-libopenjpeg --enable-libquirc --enable-libuavs3d --enable-libxevd --enable-libzvbi --enable-libqrencode --enable-librav1e --enable-libsvtav1 --enable-libvvenc --enable-libwebp --enable-libx264 --enable-libx265 --enable-libxavs2 --enable-libxeve --enable-libxvid --enable-libaom --enable-libjxl --enable-libvpx --enable-mediafoundation --enable-libass --enable-frei0r --enable-libfreetype --enable-libfribidi --enable-libharfbuzz --enable-liblensfun --enable-libvidstab --enable-libvmaf --enable-libzimg --enable-amf --enable-cuda-llvm --enable-cuvid --enable-dxva2 --enable-d3d11va --enable-d3d12va --enable-ffnvcodec --enable-libvpl --enable-nvdec --enable-nvenc --enable-vaapi --enable-libshaderc --enable-vulkan --enable-libplacebo --enable-opencl --enable-libcdio --enable-libgme --enable-libmodplug --enable-libopenmpt --enable-libopencore-amrwb --enable-libmp3lame --enable-libshine --enable-libtheora --enable-libtwolame --enable-libvo-amrwbenc --enable-libcodec2 --enable-libilbc --enable-libgsm --enable-liblc3 --enable-libopencore-amrnb --enable-libopus --enable-libspeex --enable-libvorbis --enable-ladspa --enable-libbs2b --enable-libflite --enable-libmysofa --enable-librubberband --enable-libsoxr --enable-chromaprint\r\n",
      "  libavutil      59. 55.100 / 59. 55.100\r\n",
      "  libavcodec     61. 31.101 / 61. 31.101\r\n",
      "  libavformat    61.  9.106 / 61.  9.106\r\n",
      "  libavdevice    61.  4.100 / 61.  4.100\r\n",
      "  libavfilter    10.  6.101 / 10.  6.101\r\n",
      "  libswscale      8. 13.100 /  8. 13.100\r\n",
      "  libswresample   5.  4.100 /  5.  4.100\r\n",
      "  libpostproc    58.  4.100 / 58.  4.100\r\n",
      "Input #0, mov,mp4,m4a,3gp,3g2,mj2, from 'D:\\media\\israel_1743.mp4':\r\n",
      "  Metadata:\r\n",
      "    major_brand     : isom\r\n",
      "    minor_version   : 1\r\n",
      "    compatible_brands: isomiso4\r\n",
      "    creation_time   : 2024-12-06T22:27:48.000000Z\r\n",
      "  Duration: 00:00:06.13, start: 0.000000, bitrate: 127 kb/s\r\n",
      "  Stream #0:0[0x1](und): Video: h264 (Main) (avc1 / 0x31637661), yuv420p(progressive), 416x256, 122 kb/s, SAR 1:1 DAR 13:8, 30.16 fps, 30 tbr, 9000k tbn (default)\r\n",
      "    Metadata:\r\n",
      "      handler_name    : Twitter-vork muxer\r\n",
      "      vendor_id       : [0][0][0][0]\r\n",
      "Output #0, s16le, to 'pipe:':\r\n",
      "[out#0/s16le @ 000001bc1bd9bbc0] Output file does not contain any stream\r\n",
      "Error opening output file -.\r\n",
      "Error opening output files: Invalid argument\r\n",
      "\n",
      "51.3671875 %\n",
      "51.5625 %\n",
      "51.7578125 %\n",
      "51.953125 %\n",
      "52.1484375 %\n",
      "52.34375 %\n",
      "52.5390625 %\n",
      "52.734375 %\n",
      "52.9296875 %\n",
      "53.125 %\n",
      "53.3203125 %\n",
      "53.515625 %\n",
      "53.7109375 %\n",
      "53.90625 %\n",
      "54.1015625 %\n",
      "54.296875 %\n",
      "54.4921875 %\n",
      "Error processing D:\\media\\israel_1828.mp4: Failed to load audio: ffmpeg version 2025-01-22-git-e20ee9f9ae-full_build-www.gyan.dev Copyright (c) 2000-2025 the FFmpeg developers\r\n",
      "  built with gcc 14.2.0 (Rev1, Built by MSYS2 project)\r\n",
      "  configuration: --enable-gpl --enable-version3 --enable-static --disable-w32threads --disable-autodetect --enable-fontconfig --enable-iconv --enable-gnutls --enable-lcms2 --enable-libxml2 --enable-gmp --enable-bzlib --enable-lzma --enable-libsnappy --enable-zlib --enable-librist --enable-libsrt --enable-libssh --enable-libzmq --enable-avisynth --enable-libbluray --enable-libcaca --enable-libdvdnav --enable-libdvdread --enable-sdl2 --enable-libaribb24 --enable-libaribcaption --enable-libdav1d --enable-libdavs2 --enable-libopenjpeg --enable-libquirc --enable-libuavs3d --enable-libxevd --enable-libzvbi --enable-libqrencode --enable-librav1e --enable-libsvtav1 --enable-libvvenc --enable-libwebp --enable-libx264 --enable-libx265 --enable-libxavs2 --enable-libxeve --enable-libxvid --enable-libaom --enable-libjxl --enable-libvpx --enable-mediafoundation --enable-libass --enable-frei0r --enable-libfreetype --enable-libfribidi --enable-libharfbuzz --enable-liblensfun --enable-libvidstab --enable-libvmaf --enable-libzimg --enable-amf --enable-cuda-llvm --enable-cuvid --enable-dxva2 --enable-d3d11va --enable-d3d12va --enable-ffnvcodec --enable-libvpl --enable-nvdec --enable-nvenc --enable-vaapi --enable-libshaderc --enable-vulkan --enable-libplacebo --enable-opencl --enable-libcdio --enable-libgme --enable-libmodplug --enable-libopenmpt --enable-libopencore-amrwb --enable-libmp3lame --enable-libshine --enable-libtheora --enable-libtwolame --enable-libvo-amrwbenc --enable-libcodec2 --enable-libilbc --enable-libgsm --enable-liblc3 --enable-libopencore-amrnb --enable-libopus --enable-libspeex --enable-libvorbis --enable-ladspa --enable-libbs2b --enable-libflite --enable-libmysofa --enable-librubberband --enable-libsoxr --enable-chromaprint\r\n",
      "  libavutil      59. 55.100 / 59. 55.100\r\n",
      "  libavcodec     61. 31.101 / 61. 31.101\r\n",
      "  libavformat    61.  9.106 / 61.  9.106\r\n",
      "  libavdevice    61.  4.100 / 61.  4.100\r\n",
      "  libavfilter    10.  6.101 / 10.  6.101\r\n",
      "  libswscale      8. 13.100 /  8. 13.100\r\n",
      "  libswresample   5.  4.100 /  5.  4.100\r\n",
      "  libpostproc    58.  4.100 / 58.  4.100\r\n",
      "Input #0, mov,mp4,m4a,3gp,3g2,mj2, from 'D:\\media\\israel_1828.mp4':\r\n",
      "  Metadata:\r\n",
      "    major_brand     : iso5\r\n",
      "    minor_version   : 512\r\n",
      "    compatible_brands: iso6mp41\r\n",
      "  Duration: 00:00:00.96, start: 0.000000, bitrate: 107 kb/s\r\n",
      "  Stream #0:0[0x1](und): Video: h264 (Main) (avc1 / 0x31637661), yuv420p(progressive), 480x320, 100 kb/s, SAR 1:1 DAR 3:2, 12.50 fps, 12.50 tbr, 100 tbn (default)\r\n",
      "    Metadata:\r\n",
      "      handler_name    : Twitter-vork muxer\r\n",
      "      vendor_id       : [0][0][0][0]\r\n",
      "Output #0, s16le, to 'pipe:':\r\n",
      "[out#0/s16le @ 00000214c08a8a40] Output file does not contain any stream\r\n",
      "Error opening output file -.\r\n",
      "Error opening output files: Invalid argument\r\n",
      "\n",
      "54.6875 %\n",
      "54.8828125 %\n",
      "Error processing D:\\media\\israel_1850.mp4: Failed to load audio: ffmpeg version 2025-01-22-git-e20ee9f9ae-full_build-www.gyan.dev Copyright (c) 2000-2025 the FFmpeg developers\r\n",
      "  built with gcc 14.2.0 (Rev1, Built by MSYS2 project)\r\n",
      "  configuration: --enable-gpl --enable-version3 --enable-static --disable-w32threads --disable-autodetect --enable-fontconfig --enable-iconv --enable-gnutls --enable-lcms2 --enable-libxml2 --enable-gmp --enable-bzlib --enable-lzma --enable-libsnappy --enable-zlib --enable-librist --enable-libsrt --enable-libssh --enable-libzmq --enable-avisynth --enable-libbluray --enable-libcaca --enable-libdvdnav --enable-libdvdread --enable-sdl2 --enable-libaribb24 --enable-libaribcaption --enable-libdav1d --enable-libdavs2 --enable-libopenjpeg --enable-libquirc --enable-libuavs3d --enable-libxevd --enable-libzvbi --enable-libqrencode --enable-librav1e --enable-libsvtav1 --enable-libvvenc --enable-libwebp --enable-libx264 --enable-libx265 --enable-libxavs2 --enable-libxeve --enable-libxvid --enable-libaom --enable-libjxl --enable-libvpx --enable-mediafoundation --enable-libass --enable-frei0r --enable-libfreetype --enable-libfribidi --enable-libharfbuzz --enable-liblensfun --enable-libvidstab --enable-libvmaf --enable-libzimg --enable-amf --enable-cuda-llvm --enable-cuvid --enable-dxva2 --enable-d3d11va --enable-d3d12va --enable-ffnvcodec --enable-libvpl --enable-nvdec --enable-nvenc --enable-vaapi --enable-libshaderc --enable-vulkan --enable-libplacebo --enable-opencl --enable-libcdio --enable-libgme --enable-libmodplug --enable-libopenmpt --enable-libopencore-amrwb --enable-libmp3lame --enable-libshine --enable-libtheora --enable-libtwolame --enable-libvo-amrwbenc --enable-libcodec2 --enable-libilbc --enable-libgsm --enable-liblc3 --enable-libopencore-amrnb --enable-libopus --enable-libspeex --enable-libvorbis --enable-ladspa --enable-libbs2b --enable-libflite --enable-libmysofa --enable-librubberband --enable-libsoxr --enable-chromaprint\r\n",
      "  libavutil      59. 55.100 / 59. 55.100\r\n",
      "  libavcodec     61. 31.101 / 61. 31.101\r\n",
      "  libavformat    61.  9.106 / 61.  9.106\r\n",
      "  libavdevice    61.  4.100 / 61.  4.100\r\n",
      "  libavfilter    10.  6.101 / 10.  6.101\r\n",
      "  libswscale      8. 13.100 /  8. 13.100\r\n",
      "  libswresample   5.  4.100 /  5.  4.100\r\n",
      "  libpostproc    58.  4.100 / 58.  4.100\r\n",
      "Input #0, mov,mp4,m4a,3gp,3g2,mj2, from 'D:\\media\\israel_1850.mp4':\r\n",
      "  Metadata:\r\n",
      "    major_brand     : iso5\r\n",
      "    minor_version   : 512\r\n",
      "    compatible_brands: iso6mp41\r\n",
      "  Duration: 00:00:01.86, start: 0.000000, bitrate: 339 kb/s\r\n",
      "  Stream #0:0[0x1](und): Video: h264 (Main) (avc1 / 0x31637661), yuv420p(progressive), 498x498, 332 kb/s, SAR 1:1 DAR 1:1, 29.95 fps, 29.97 tbr, 100 tbn (default)\r\n",
      "    Metadata:\r\n",
      "      handler_name    : Twitter-vork muxer\r\n",
      "      vendor_id       : [0][0][0][0]\r\n",
      "Output #0, s16le, to 'pipe:':\r\n",
      "[out#0/s16le @ 000001a1a247bbc0] Output file does not contain any stream\r\n",
      "Error opening output file -.\r\n",
      "Error opening output files: Invalid argument\r\n",
      "\n",
      "55.078125 %\n",
      "55.2734375 %\n",
      "55.46875 %\n",
      "55.6640625 %\n",
      "55.859375 %\n",
      "56.0546875 %\n",
      "56.25 %\n",
      "56.4453125 %\n",
      "56.640625 %\n",
      "56.8359375 %\n",
      "57.03125 %\n",
      "57.2265625 %\n",
      "Error processing D:\\media\\israel_1877.mp4: Failed to load audio: ffmpeg version 2025-01-22-git-e20ee9f9ae-full_build-www.gyan.dev Copyright (c) 2000-2025 the FFmpeg developers\r\n",
      "  built with gcc 14.2.0 (Rev1, Built by MSYS2 project)\r\n",
      "  configuration: --enable-gpl --enable-version3 --enable-static --disable-w32threads --disable-autodetect --enable-fontconfig --enable-iconv --enable-gnutls --enable-lcms2 --enable-libxml2 --enable-gmp --enable-bzlib --enable-lzma --enable-libsnappy --enable-zlib --enable-librist --enable-libsrt --enable-libssh --enable-libzmq --enable-avisynth --enable-libbluray --enable-libcaca --enable-libdvdnav --enable-libdvdread --enable-sdl2 --enable-libaribb24 --enable-libaribcaption --enable-libdav1d --enable-libdavs2 --enable-libopenjpeg --enable-libquirc --enable-libuavs3d --enable-libxevd --enable-libzvbi --enable-libqrencode --enable-librav1e --enable-libsvtav1 --enable-libvvenc --enable-libwebp --enable-libx264 --enable-libx265 --enable-libxavs2 --enable-libxeve --enable-libxvid --enable-libaom --enable-libjxl --enable-libvpx --enable-mediafoundation --enable-libass --enable-frei0r --enable-libfreetype --enable-libfribidi --enable-libharfbuzz --enable-liblensfun --enable-libvidstab --enable-libvmaf --enable-libzimg --enable-amf --enable-cuda-llvm --enable-cuvid --enable-dxva2 --enable-d3d11va --enable-d3d12va --enable-ffnvcodec --enable-libvpl --enable-nvdec --enable-nvenc --enable-vaapi --enable-libshaderc --enable-vulkan --enable-libplacebo --enable-opencl --enable-libcdio --enable-libgme --enable-libmodplug --enable-libopenmpt --enable-libopencore-amrwb --enable-libmp3lame --enable-libshine --enable-libtheora --enable-libtwolame --enable-libvo-amrwbenc --enable-libcodec2 --enable-libilbc --enable-libgsm --enable-liblc3 --enable-libopencore-amrnb --enable-libopus --enable-libspeex --enable-libvorbis --enable-ladspa --enable-libbs2b --enable-libflite --enable-libmysofa --enable-librubberband --enable-libsoxr --enable-chromaprint\r\n",
      "  libavutil      59. 55.100 / 59. 55.100\r\n",
      "  libavcodec     61. 31.101 / 61. 31.101\r\n",
      "  libavformat    61.  9.106 / 61.  9.106\r\n",
      "  libavdevice    61.  4.100 / 61.  4.100\r\n",
      "  libavfilter    10.  6.101 / 10.  6.101\r\n",
      "  libswscale      8. 13.100 /  8. 13.100\r\n",
      "  libswresample   5.  4.100 /  5.  4.100\r\n",
      "  libpostproc    58.  4.100 / 58.  4.100\r\n",
      "Input #0, mov,mp4,m4a,3gp,3g2,mj2, from 'D:\\media\\israel_1877.mp4':\r\n",
      "  Metadata:\r\n",
      "    major_brand     : mp42\r\n",
      "    minor_version   : 1\r\n",
      "    compatible_brands: isommp41mp42\r\n",
      "    creation_time   : 2024-12-22T06:21:44.000000Z\r\n",
      "  Duration: 00:00:11.97, start: 0.000000, bitrate: 3153 kb/s\r\n",
      "  Stream #0:0[0x1](und): Video: h264 (High) (avc1 / 0x31637661), yuv420p(tv, bt709, progressive), 1280x720, 3149 kb/s, SAR 1:1 DAR 16:9, 29.92 fps, 30 tbr, 600 tbn (default)\r\n",
      "    Metadata:\r\n",
      "      creation_time   : 2024-12-22T06:21:44.000000Z\r\n",
      "      handler_name    : Core Media Video\r\n",
      "      vendor_id       : [0][0][0][0]\r\n",
      "Output #0, s16le, to 'pipe:':\r\n",
      "[out#0/s16le @ 000002dd7d00bbc0] Output file does not contain any stream\r\n",
      "Error opening output file -.\r\n",
      "Error opening output files: Invalid argument\r\n",
      "\n",
      "57.421875 %\n",
      "57.6171875 %\n",
      "57.8125 %\n",
      "58.0078125 %\n",
      "58.203125 %\n",
      "Error processing D:\\media\\israel_1886.mp4: Failed to load audio: ffmpeg version 2025-01-22-git-e20ee9f9ae-full_build-www.gyan.dev Copyright (c) 2000-2025 the FFmpeg developers\r\n",
      "  built with gcc 14.2.0 (Rev1, Built by MSYS2 project)\r\n",
      "  configuration: --enable-gpl --enable-version3 --enable-static --disable-w32threads --disable-autodetect --enable-fontconfig --enable-iconv --enable-gnutls --enable-lcms2 --enable-libxml2 --enable-gmp --enable-bzlib --enable-lzma --enable-libsnappy --enable-zlib --enable-librist --enable-libsrt --enable-libssh --enable-libzmq --enable-avisynth --enable-libbluray --enable-libcaca --enable-libdvdnav --enable-libdvdread --enable-sdl2 --enable-libaribb24 --enable-libaribcaption --enable-libdav1d --enable-libdavs2 --enable-libopenjpeg --enable-libquirc --enable-libuavs3d --enable-libxevd --enable-libzvbi --enable-libqrencode --enable-librav1e --enable-libsvtav1 --enable-libvvenc --enable-libwebp --enable-libx264 --enable-libx265 --enable-libxavs2 --enable-libxeve --enable-libxvid --enable-libaom --enable-libjxl --enable-libvpx --enable-mediafoundation --enable-libass --enable-frei0r --enable-libfreetype --enable-libfribidi --enable-libharfbuzz --enable-liblensfun --enable-libvidstab --enable-libvmaf --enable-libzimg --enable-amf --enable-cuda-llvm --enable-cuvid --enable-dxva2 --enable-d3d11va --enable-d3d12va --enable-ffnvcodec --enable-libvpl --enable-nvdec --enable-nvenc --enable-vaapi --enable-libshaderc --enable-vulkan --enable-libplacebo --enable-opencl --enable-libcdio --enable-libgme --enable-libmodplug --enable-libopenmpt --enable-libopencore-amrwb --enable-libmp3lame --enable-libshine --enable-libtheora --enable-libtwolame --enable-libvo-amrwbenc --enable-libcodec2 --enable-libilbc --enable-libgsm --enable-liblc3 --enable-libopencore-amrnb --enable-libopus --enable-libspeex --enable-libvorbis --enable-ladspa --enable-libbs2b --enable-libflite --enable-libmysofa --enable-librubberband --enable-libsoxr --enable-chromaprint\r\n",
      "  libavutil      59. 55.100 / 59. 55.100\r\n",
      "  libavcodec     61. 31.101 / 61. 31.101\r\n",
      "  libavformat    61.  9.106 / 61.  9.106\r\n",
      "  libavdevice    61.  4.100 / 61.  4.100\r\n",
      "  libavfilter    10.  6.101 / 10.  6.101\r\n",
      "  libswscale      8. 13.100 /  8. 13.100\r\n",
      "  libswresample   5.  4.100 /  5.  4.100\r\n",
      "  libpostproc    58.  4.100 / 58.  4.100\r\n",
      "Input #0, mov,mp4,m4a,3gp,3g2,mj2, from 'D:\\media\\israel_1886.mp4':\r\n",
      "  Metadata:\r\n",
      "    major_brand     : isom\r\n",
      "    minor_version   : 1\r\n",
      "    compatible_brands: isomiso4\r\n",
      "    creation_time   : 2024-12-23T14:26:18.000000Z\r\n",
      "  Duration: 00:00:38.53, start: 0.000000, bitrate: 230 kb/s\r\n",
      "  Stream #0:0[0x1](und): Video: h264 (Main) (avc1 / 0x31637661), yuv420p(progressive), 352x634, 226 kb/s, SAR 1:1 DAR 176:317, 30 fps, 30 tbr, 900000000.00 tbn (default)\r\n",
      "    Metadata:\r\n",
      "      handler_name    : Twitter-vork muxer\r\n",
      "      vendor_id       : [0][0][0][0]\r\n",
      "Output #0, s16le, to 'pipe:':\r\n",
      "[out#0/s16le @ 00000224f5738f00] Output file does not contain any stream\r\n",
      "Error opening output file -.\r\n",
      "Error opening output files: Invalid argument\r\n",
      "\n",
      "58.3984375 %\n",
      "58.59375 %\n",
      "58.7890625 %\n",
      "58.984375 %\n",
      "59.1796875 %\n",
      "59.375 %\n",
      "59.5703125 %\n",
      "59.765625 %\n",
      "59.9609375 %\n",
      "60.15625 %\n",
      "60.3515625 %\n",
      "60.546875 %\n",
      "60.7421875 %\n",
      "60.9375 %\n",
      "61.1328125 %\n",
      "61.328125 %\n",
      "61.5234375 %\n",
      "61.71875 %\n",
      "61.9140625 %\n",
      "62.109375 %\n",
      "62.3046875 %\n",
      "62.5 %\n",
      "62.6953125 %\n",
      "62.890625 %\n",
      "63.0859375 %\n",
      "63.28125 %\n",
      "63.4765625 %\n",
      "63.671875 %\n",
      "63.8671875 %\n",
      "64.0625 %\n",
      "64.2578125 %\n",
      "64.453125 %\n",
      "Error processing D:\\media\\ILTVnews_2252 (2).mp4: Failed to load audio: ffmpeg version 2025-01-22-git-e20ee9f9ae-full_build-www.gyan.dev Copyright (c) 2000-2025 the FFmpeg developers\r\n",
      "  built with gcc 14.2.0 (Rev1, Built by MSYS2 project)\r\n",
      "  configuration: --enable-gpl --enable-version3 --enable-static --disable-w32threads --disable-autodetect --enable-fontconfig --enable-iconv --enable-gnutls --enable-lcms2 --enable-libxml2 --enable-gmp --enable-bzlib --enable-lzma --enable-libsnappy --enable-zlib --enable-librist --enable-libsrt --enable-libssh --enable-libzmq --enable-avisynth --enable-libbluray --enable-libcaca --enable-libdvdnav --enable-libdvdread --enable-sdl2 --enable-libaribb24 --enable-libaribcaption --enable-libdav1d --enable-libdavs2 --enable-libopenjpeg --enable-libquirc --enable-libuavs3d --enable-libxevd --enable-libzvbi --enable-libqrencode --enable-librav1e --enable-libsvtav1 --enable-libvvenc --enable-libwebp --enable-libx264 --enable-libx265 --enable-libxavs2 --enable-libxeve --enable-libxvid --enable-libaom --enable-libjxl --enable-libvpx --enable-mediafoundation --enable-libass --enable-frei0r --enable-libfreetype --enable-libfribidi --enable-libharfbuzz --enable-liblensfun --enable-libvidstab --enable-libvmaf --enable-libzimg --enable-amf --enable-cuda-llvm --enable-cuvid --enable-dxva2 --enable-d3d11va --enable-d3d12va --enable-ffnvcodec --enable-libvpl --enable-nvdec --enable-nvenc --enable-vaapi --enable-libshaderc --enable-vulkan --enable-libplacebo --enable-opencl --enable-libcdio --enable-libgme --enable-libmodplug --enable-libopenmpt --enable-libopencore-amrwb --enable-libmp3lame --enable-libshine --enable-libtheora --enable-libtwolame --enable-libvo-amrwbenc --enable-libcodec2 --enable-libilbc --enable-libgsm --enable-liblc3 --enable-libopencore-amrnb --enable-libopus --enable-libspeex --enable-libvorbis --enable-ladspa --enable-libbs2b --enable-libflite --enable-libmysofa --enable-librubberband --enable-libsoxr --enable-chromaprint\r\n",
      "  libavutil      59. 55.100 / 59. 55.100\r\n",
      "  libavcodec     61. 31.101 / 61. 31.101\r\n",
      "  libavformat    61.  9.106 / 61.  9.106\r\n",
      "  libavdevice    61.  4.100 / 61.  4.100\r\n",
      "  libavfilter    10.  6.101 / 10.  6.101\r\n",
      "  libswscale      8. 13.100 /  8. 13.100\r\n",
      "  libswresample   5.  4.100 /  5.  4.100\r\n",
      "  libpostproc    58.  4.100 / 58.  4.100\r\n",
      "[in#0 @ 00000179b643b440] Error opening input: No such file or directory\r\n",
      "Error opening input file D:\\media\\ILTVnews_2252 (2).mp4.\r\n",
      "Error opening input files: No such file or directory\r\n",
      "\n",
      "Error processing D:\\media\\ILTVnews_2251 (1).mp4: Failed to load audio: ffmpeg version 2025-01-22-git-e20ee9f9ae-full_build-www.gyan.dev Copyright (c) 2000-2025 the FFmpeg developers\r\n",
      "  built with gcc 14.2.0 (Rev1, Built by MSYS2 project)\r\n",
      "  configuration: --enable-gpl --enable-version3 --enable-static --disable-w32threads --disable-autodetect --enable-fontconfig --enable-iconv --enable-gnutls --enable-lcms2 --enable-libxml2 --enable-gmp --enable-bzlib --enable-lzma --enable-libsnappy --enable-zlib --enable-librist --enable-libsrt --enable-libssh --enable-libzmq --enable-avisynth --enable-libbluray --enable-libcaca --enable-libdvdnav --enable-libdvdread --enable-sdl2 --enable-libaribb24 --enable-libaribcaption --enable-libdav1d --enable-libdavs2 --enable-libopenjpeg --enable-libquirc --enable-libuavs3d --enable-libxevd --enable-libzvbi --enable-libqrencode --enable-librav1e --enable-libsvtav1 --enable-libvvenc --enable-libwebp --enable-libx264 --enable-libx265 --enable-libxavs2 --enable-libxeve --enable-libxvid --enable-libaom --enable-libjxl --enable-libvpx --enable-mediafoundation --enable-libass --enable-frei0r --enable-libfreetype --enable-libfribidi --enable-libharfbuzz --enable-liblensfun --enable-libvidstab --enable-libvmaf --enable-libzimg --enable-amf --enable-cuda-llvm --enable-cuvid --enable-dxva2 --enable-d3d11va --enable-d3d12va --enable-ffnvcodec --enable-libvpl --enable-nvdec --enable-nvenc --enable-vaapi --enable-libshaderc --enable-vulkan --enable-libplacebo --enable-opencl --enable-libcdio --enable-libgme --enable-libmodplug --enable-libopenmpt --enable-libopencore-amrwb --enable-libmp3lame --enable-libshine --enable-libtheora --enable-libtwolame --enable-libvo-amrwbenc --enable-libcodec2 --enable-libilbc --enable-libgsm --enable-liblc3 --enable-libopencore-amrnb --enable-libopus --enable-libspeex --enable-libvorbis --enable-ladspa --enable-libbs2b --enable-libflite --enable-libmysofa --enable-librubberband --enable-libsoxr --enable-chromaprint\r\n",
      "  libavutil      59. 55.100 / 59. 55.100\r\n",
      "  libavcodec     61. 31.101 / 61. 31.101\r\n",
      "  libavformat    61.  9.106 / 61.  9.106\r\n",
      "  libavdevice    61.  4.100 / 61.  4.100\r\n",
      "  libavfilter    10.  6.101 / 10.  6.101\r\n",
      "  libswscale      8. 13.100 /  8. 13.100\r\n",
      "  libswresample   5.  4.100 /  5.  4.100\r\n",
      "  libpostproc    58.  4.100 / 58.  4.100\r\n",
      "[in#0 @ 0000023e01c5b440] Error opening input: No such file or directory\r\n",
      "Error opening input file D:\\media\\ILTVnews_2251 (1).mp4.\r\n",
      "Error opening input files: No such file or directory\r\n",
      "\n",
      "Error processing D:\\media\\ILTVnews_2250 (1).mp4: Failed to load audio: ffmpeg version 2025-01-22-git-e20ee9f9ae-full_build-www.gyan.dev Copyright (c) 2000-2025 the FFmpeg developers\r\n",
      "  built with gcc 14.2.0 (Rev1, Built by MSYS2 project)\r\n",
      "  configuration: --enable-gpl --enable-version3 --enable-static --disable-w32threads --disable-autodetect --enable-fontconfig --enable-iconv --enable-gnutls --enable-lcms2 --enable-libxml2 --enable-gmp --enable-bzlib --enable-lzma --enable-libsnappy --enable-zlib --enable-librist --enable-libsrt --enable-libssh --enable-libzmq --enable-avisynth --enable-libbluray --enable-libcaca --enable-libdvdnav --enable-libdvdread --enable-sdl2 --enable-libaribb24 --enable-libaribcaption --enable-libdav1d --enable-libdavs2 --enable-libopenjpeg --enable-libquirc --enable-libuavs3d --enable-libxevd --enable-libzvbi --enable-libqrencode --enable-librav1e --enable-libsvtav1 --enable-libvvenc --enable-libwebp --enable-libx264 --enable-libx265 --enable-libxavs2 --enable-libxeve --enable-libxvid --enable-libaom --enable-libjxl --enable-libvpx --enable-mediafoundation --enable-libass --enable-frei0r --enable-libfreetype --enable-libfribidi --enable-libharfbuzz --enable-liblensfun --enable-libvidstab --enable-libvmaf --enable-libzimg --enable-amf --enable-cuda-llvm --enable-cuvid --enable-dxva2 --enable-d3d11va --enable-d3d12va --enable-ffnvcodec --enable-libvpl --enable-nvdec --enable-nvenc --enable-vaapi --enable-libshaderc --enable-vulkan --enable-libplacebo --enable-opencl --enable-libcdio --enable-libgme --enable-libmodplug --enable-libopenmpt --enable-libopencore-amrwb --enable-libmp3lame --enable-libshine --enable-libtheora --enable-libtwolame --enable-libvo-amrwbenc --enable-libcodec2 --enable-libilbc --enable-libgsm --enable-liblc3 --enable-libopencore-amrnb --enable-libopus --enable-libspeex --enable-libvorbis --enable-ladspa --enable-libbs2b --enable-libflite --enable-libmysofa --enable-librubberband --enable-libsoxr --enable-chromaprint\r\n",
      "  libavutil      59. 55.100 / 59. 55.100\r\n",
      "  libavcodec     61. 31.101 / 61. 31.101\r\n",
      "  libavformat    61.  9.106 / 61.  9.106\r\n",
      "  libavdevice    61.  4.100 / 61.  4.100\r\n",
      "  libavfilter    10.  6.101 / 10.  6.101\r\n",
      "  libswscale      8. 13.100 /  8. 13.100\r\n",
      "  libswresample   5.  4.100 /  5.  4.100\r\n",
      "  libpostproc    58.  4.100 / 58.  4.100\r\n",
      "[in#0 @ 000001520e60b440] Error opening input: No such file or directory\r\n",
      "Error opening input file D:\\media\\ILTVnews_2250 (1).mp4.\r\n",
      "Error opening input files: No such file or directory\r\n",
      "\n",
      "Error processing D:\\media\\ILTVnews_2249 (1).mp4: Failed to load audio: ffmpeg version 2025-01-22-git-e20ee9f9ae-full_build-www.gyan.dev Copyright (c) 2000-2025 the FFmpeg developers\r\n",
      "  built with gcc 14.2.0 (Rev1, Built by MSYS2 project)\r\n",
      "  configuration: --enable-gpl --enable-version3 --enable-static --disable-w32threads --disable-autodetect --enable-fontconfig --enable-iconv --enable-gnutls --enable-lcms2 --enable-libxml2 --enable-gmp --enable-bzlib --enable-lzma --enable-libsnappy --enable-zlib --enable-librist --enable-libsrt --enable-libssh --enable-libzmq --enable-avisynth --enable-libbluray --enable-libcaca --enable-libdvdnav --enable-libdvdread --enable-sdl2 --enable-libaribb24 --enable-libaribcaption --enable-libdav1d --enable-libdavs2 --enable-libopenjpeg --enable-libquirc --enable-libuavs3d --enable-libxevd --enable-libzvbi --enable-libqrencode --enable-librav1e --enable-libsvtav1 --enable-libvvenc --enable-libwebp --enable-libx264 --enable-libx265 --enable-libxavs2 --enable-libxeve --enable-libxvid --enable-libaom --enable-libjxl --enable-libvpx --enable-mediafoundation --enable-libass --enable-frei0r --enable-libfreetype --enable-libfribidi --enable-libharfbuzz --enable-liblensfun --enable-libvidstab --enable-libvmaf --enable-libzimg --enable-amf --enable-cuda-llvm --enable-cuvid --enable-dxva2 --enable-d3d11va --enable-d3d12va --enable-ffnvcodec --enable-libvpl --enable-nvdec --enable-nvenc --enable-vaapi --enable-libshaderc --enable-vulkan --enable-libplacebo --enable-opencl --enable-libcdio --enable-libgme --enable-libmodplug --enable-libopenmpt --enable-libopencore-amrwb --enable-libmp3lame --enable-libshine --enable-libtheora --enable-libtwolame --enable-libvo-amrwbenc --enable-libcodec2 --enable-libilbc --enable-libgsm --enable-liblc3 --enable-libopencore-amrnb --enable-libopus --enable-libspeex --enable-libvorbis --enable-ladspa --enable-libbs2b --enable-libflite --enable-libmysofa --enable-librubberband --enable-libsoxr --enable-chromaprint\r\n",
      "  libavutil      59. 55.100 / 59. 55.100\r\n",
      "  libavcodec     61. 31.101 / 61. 31.101\r\n",
      "  libavformat    61.  9.106 / 61.  9.106\r\n",
      "  libavdevice    61.  4.100 / 61.  4.100\r\n",
      "  libavfilter    10.  6.101 / 10.  6.101\r\n",
      "  libswscale      8. 13.100 /  8. 13.100\r\n",
      "  libswresample   5.  4.100 /  5.  4.100\r\n",
      "  libpostproc    58.  4.100 / 58.  4.100\r\n",
      "[in#0 @ 0000029582e0b440] Error opening input: No such file or directory\r\n",
      "Error opening input file D:\\media\\ILTVnews_2249 (1).mp4.\r\n",
      "Error opening input files: No such file or directory\r\n",
      "\n",
      "Error processing D:\\media\\ILTVnews_2248 (1).mp4: Failed to load audio: ffmpeg version 2025-01-22-git-e20ee9f9ae-full_build-www.gyan.dev Copyright (c) 2000-2025 the FFmpeg developers\r\n",
      "  built with gcc 14.2.0 (Rev1, Built by MSYS2 project)\r\n",
      "  configuration: --enable-gpl --enable-version3 --enable-static --disable-w32threads --disable-autodetect --enable-fontconfig --enable-iconv --enable-gnutls --enable-lcms2 --enable-libxml2 --enable-gmp --enable-bzlib --enable-lzma --enable-libsnappy --enable-zlib --enable-librist --enable-libsrt --enable-libssh --enable-libzmq --enable-avisynth --enable-libbluray --enable-libcaca --enable-libdvdnav --enable-libdvdread --enable-sdl2 --enable-libaribb24 --enable-libaribcaption --enable-libdav1d --enable-libdavs2 --enable-libopenjpeg --enable-libquirc --enable-libuavs3d --enable-libxevd --enable-libzvbi --enable-libqrencode --enable-librav1e --enable-libsvtav1 --enable-libvvenc --enable-libwebp --enable-libx264 --enable-libx265 --enable-libxavs2 --enable-libxeve --enable-libxvid --enable-libaom --enable-libjxl --enable-libvpx --enable-mediafoundation --enable-libass --enable-frei0r --enable-libfreetype --enable-libfribidi --enable-libharfbuzz --enable-liblensfun --enable-libvidstab --enable-libvmaf --enable-libzimg --enable-amf --enable-cuda-llvm --enable-cuvid --enable-dxva2 --enable-d3d11va --enable-d3d12va --enable-ffnvcodec --enable-libvpl --enable-nvdec --enable-nvenc --enable-vaapi --enable-libshaderc --enable-vulkan --enable-libplacebo --enable-opencl --enable-libcdio --enable-libgme --enable-libmodplug --enable-libopenmpt --enable-libopencore-amrwb --enable-libmp3lame --enable-libshine --enable-libtheora --enable-libtwolame --enable-libvo-amrwbenc --enable-libcodec2 --enable-libilbc --enable-libgsm --enable-liblc3 --enable-libopencore-amrnb --enable-libopus --enable-libspeex --enable-libvorbis --enable-ladspa --enable-libbs2b --enable-libflite --enable-libmysofa --enable-librubberband --enable-libsoxr --enable-chromaprint\r\n",
      "  libavutil      59. 55.100 / 59. 55.100\r\n",
      "  libavcodec     61. 31.101 / 61. 31.101\r\n",
      "  libavformat    61.  9.106 / 61.  9.106\r\n",
      "  libavdevice    61.  4.100 / 61.  4.100\r\n",
      "  libavfilter    10.  6.101 / 10.  6.101\r\n",
      "  libswscale      8. 13.100 /  8. 13.100\r\n",
      "  libswresample   5.  4.100 /  5.  4.100\r\n",
      "  libpostproc    58.  4.100 / 58.  4.100\r\n",
      "[in#0 @ 000001f7dfe9b440] Error opening input: No such file or directory\r\n",
      "Error opening input file D:\\media\\ILTVnews_2248 (1).mp4.\r\n",
      "Error opening input files: No such file or directory\r\n",
      "\n",
      "64.6484375 %\n",
      "64.84375 %\n",
      "Error processing D:\\media\\ILTVnews_2268.mp4: Failed to load audio: ffmpeg version 2025-01-22-git-e20ee9f9ae-full_build-www.gyan.dev Copyright (c) 2000-2025 the FFmpeg developers\r\n",
      "  built with gcc 14.2.0 (Rev1, Built by MSYS2 project)\r\n",
      "  configuration: --enable-gpl --enable-version3 --enable-static --disable-w32threads --disable-autodetect --enable-fontconfig --enable-iconv --enable-gnutls --enable-lcms2 --enable-libxml2 --enable-gmp --enable-bzlib --enable-lzma --enable-libsnappy --enable-zlib --enable-librist --enable-libsrt --enable-libssh --enable-libzmq --enable-avisynth --enable-libbluray --enable-libcaca --enable-libdvdnav --enable-libdvdread --enable-sdl2 --enable-libaribb24 --enable-libaribcaption --enable-libdav1d --enable-libdavs2 --enable-libopenjpeg --enable-libquirc --enable-libuavs3d --enable-libxevd --enable-libzvbi --enable-libqrencode --enable-librav1e --enable-libsvtav1 --enable-libvvenc --enable-libwebp --enable-libx264 --enable-libx265 --enable-libxavs2 --enable-libxeve --enable-libxvid --enable-libaom --enable-libjxl --enable-libvpx --enable-mediafoundation --enable-libass --enable-frei0r --enable-libfreetype --enable-libfribidi --enable-libharfbuzz --enable-liblensfun --enable-libvidstab --enable-libvmaf --enable-libzimg --enable-amf --enable-cuda-llvm --enable-cuvid --enable-dxva2 --enable-d3d11va --enable-d3d12va --enable-ffnvcodec --enable-libvpl --enable-nvdec --enable-nvenc --enable-vaapi --enable-libshaderc --enable-vulkan --enable-libplacebo --enable-opencl --enable-libcdio --enable-libgme --enable-libmodplug --enable-libopenmpt --enable-libopencore-amrwb --enable-libmp3lame --enable-libshine --enable-libtheora --enable-libtwolame --enable-libvo-amrwbenc --enable-libcodec2 --enable-libilbc --enable-libgsm --enable-liblc3 --enable-libopencore-amrnb --enable-libopus --enable-libspeex --enable-libvorbis --enable-ladspa --enable-libbs2b --enable-libflite --enable-libmysofa --enable-librubberband --enable-libsoxr --enable-chromaprint\r\n",
      "  libavutil      59. 55.100 / 59. 55.100\r\n",
      "  libavcodec     61. 31.101 / 61. 31.101\r\n",
      "  libavformat    61.  9.106 / 61.  9.106\r\n",
      "  libavdevice    61.  4.100 / 61.  4.100\r\n",
      "  libavfilter    10.  6.101 / 10.  6.101\r\n",
      "  libswscale      8. 13.100 /  8. 13.100\r\n",
      "  libswresample   5.  4.100 /  5.  4.100\r\n",
      "  libpostproc    58.  4.100 / 58.  4.100\r\n",
      "Input #0, mov,mp4,m4a,3gp,3g2,mj2, from 'D:\\media\\ILTVnews_2268.mp4':\r\n",
      "  Metadata:\r\n",
      "    major_brand     : mp42\r\n",
      "    minor_version   : 1\r\n",
      "    compatible_brands: isommp41mp42\r\n",
      "    creation_time   : 2024-11-12T14:47:17.000000Z\r\n",
      "  Duration: 00:00:02.27, start: 0.000000, bitrate: 1626 kb/s\r\n",
      "  Stream #0:0[0x1](und): Video: h264 (High) (avc1 / 0x31637661), yuv420p(tv, bt709, progressive), 480x848, 1620 kb/s, SAR 1:1 DAR 30:53, 30 fps, 30 tbr, 600 tbn (default)\r\n",
      "    Metadata:\r\n",
      "      creation_time   : 2024-11-12T14:47:17.000000Z\r\n",
      "      handler_name    : Core Media Video\r\n",
      "      vendor_id       : [0][0][0][0]\r\n",
      "Output #0, s16le, to 'pipe:':\r\n",
      "[out#0/s16le @ 00000156b8d9bbc0] Output file does not contain any stream\r\n",
      "Error opening output file -.\r\n",
      "Error opening output files: Invalid argument\r\n",
      "\n",
      "65.0390625 %\n",
      "65.234375 %\n",
      "65.4296875 %\n",
      "65.625 %\n",
      "65.8203125 %\n",
      "66.015625 %\n",
      "66.2109375 %\n",
      "66.40625 %\n",
      "66.6015625 %\n",
      "Error processing D:\\media\\ILTVnews_2290.mp4: Failed to load audio: ffmpeg version 2025-01-22-git-e20ee9f9ae-full_build-www.gyan.dev Copyright (c) 2000-2025 the FFmpeg developers\r\n",
      "  built with gcc 14.2.0 (Rev1, Built by MSYS2 project)\r\n",
      "  configuration: --enable-gpl --enable-version3 --enable-static --disable-w32threads --disable-autodetect --enable-fontconfig --enable-iconv --enable-gnutls --enable-lcms2 --enable-libxml2 --enable-gmp --enable-bzlib --enable-lzma --enable-libsnappy --enable-zlib --enable-librist --enable-libsrt --enable-libssh --enable-libzmq --enable-avisynth --enable-libbluray --enable-libcaca --enable-libdvdnav --enable-libdvdread --enable-sdl2 --enable-libaribb24 --enable-libaribcaption --enable-libdav1d --enable-libdavs2 --enable-libopenjpeg --enable-libquirc --enable-libuavs3d --enable-libxevd --enable-libzvbi --enable-libqrencode --enable-librav1e --enable-libsvtav1 --enable-libvvenc --enable-libwebp --enable-libx264 --enable-libx265 --enable-libxavs2 --enable-libxeve --enable-libxvid --enable-libaom --enable-libjxl --enable-libvpx --enable-mediafoundation --enable-libass --enable-frei0r --enable-libfreetype --enable-libfribidi --enable-libharfbuzz --enable-liblensfun --enable-libvidstab --enable-libvmaf --enable-libzimg --enable-amf --enable-cuda-llvm --enable-cuvid --enable-dxva2 --enable-d3d11va --enable-d3d12va --enable-ffnvcodec --enable-libvpl --enable-nvdec --enable-nvenc --enable-vaapi --enable-libshaderc --enable-vulkan --enable-libplacebo --enable-opencl --enable-libcdio --enable-libgme --enable-libmodplug --enable-libopenmpt --enable-libopencore-amrwb --enable-libmp3lame --enable-libshine --enable-libtheora --enable-libtwolame --enable-libvo-amrwbenc --enable-libcodec2 --enable-libilbc --enable-libgsm --enable-liblc3 --enable-libopencore-amrnb --enable-libopus --enable-libspeex --enable-libvorbis --enable-ladspa --enable-libbs2b --enable-libflite --enable-libmysofa --enable-librubberband --enable-libsoxr --enable-chromaprint\r\n",
      "  libavutil      59. 55.100 / 59. 55.100\r\n",
      "  libavcodec     61. 31.101 / 61. 31.101\r\n",
      "  libavformat    61.  9.106 / 61.  9.106\r\n",
      "  libavdevice    61.  4.100 / 61.  4.100\r\n",
      "  libavfilter    10.  6.101 / 10.  6.101\r\n",
      "  libswscale      8. 13.100 /  8. 13.100\r\n",
      "  libswresample   5.  4.100 /  5.  4.100\r\n",
      "  libpostproc    58.  4.100 / 58.  4.100\r\n",
      "Input #0, mov,mp4,m4a,3gp,3g2,mj2, from 'D:\\media\\ILTVnews_2290.mp4':\r\n",
      "  Metadata:\r\n",
      "    major_brand     : mp42\r\n",
      "    minor_version   : 1\r\n",
      "    compatible_brands: isommp41mp42\r\n",
      "    creation_time   : 2024-11-20T20:27:14.000000Z\r\n",
      "  Duration: 00:00:14.53, start: 0.000000, bitrate: 707 kb/s\r\n",
      "  Stream #0:0[0x1](und): Video: h264 (High) (avc1 / 0x31637661), yuv420p(tv, bt709, progressive), 640x352, 703 kb/s, SAR 1:1 DAR 20:11, 29.86 fps, 30 tbr, 600 tbn (default)\r\n",
      "    Metadata:\r\n",
      "      creation_time   : 2024-11-20T20:27:14.000000Z\r\n",
      "      handler_name    : Core Media Video\r\n",
      "      vendor_id       : [0][0][0][0]\r\n",
      "Output #0, s16le, to 'pipe:':\r\n",
      "[out#0/s16le @ 0000026c35a5bbc0] Output file does not contain any stream\r\n",
      "Error opening output file -.\r\n",
      "Error opening output files: Invalid argument\r\n",
      "\n",
      "66.796875 %\n",
      "66.9921875 %\n",
      "67.1875 %\n",
      "67.3828125 %\n",
      "67.578125 %\n",
      "67.7734375 %\n",
      "67.96875 %\n",
      "68.1640625 %\n",
      "68.359375 %\n",
      "68.5546875 %\n",
      "68.75 %\n",
      "68.9453125 %\n",
      "69.140625 %\n",
      "69.3359375 %\n",
      "69.53125 %\n",
      "69.7265625 %\n",
      "69.921875 %\n",
      "70.1171875 %\n",
      "70.3125 %\n",
      "70.5078125 %\n",
      "70.703125 %\n",
      "70.8984375 %\n",
      "71.09375 %\n",
      "71.2890625 %\n",
      "71.484375 %\n",
      "71.6796875 %\n",
      "71.875 %\n",
      "72.0703125 %\n",
      "72.265625 %\n",
      "72.4609375 %\n",
      "72.65625 %\n",
      "72.8515625 %\n",
      "73.046875 %\n",
      "73.2421875 %\n",
      "73.4375 %\n",
      "73.6328125 %\n",
      "73.828125 %\n",
      "74.0234375 %\n",
      "74.21875 %\n",
      "74.4140625 %\n",
      "74.609375 %\n",
      "74.8046875 %\n",
      "75.0 %\n",
      "75.1953125 %\n",
      "75.390625 %\n",
      "75.5859375 %\n",
      "75.78125 %\n",
      "75.9765625 %\n",
      "76.171875 %\n",
      "76.3671875 %\n",
      "76.5625 %\n",
      "76.7578125 %\n",
      "76.953125 %\n",
      "77.1484375 %\n",
      "77.34375 %\n",
      "77.5390625 %\n",
      "77.734375 %\n",
      "77.9296875 %\n",
      "78.125 %\n",
      "78.3203125 %\n",
      "78.515625 %\n",
      "78.7109375 %\n",
      "78.90625 %\n",
      "79.1015625 %\n",
      "79.296875 %\n",
      "79.4921875 %\n",
      "79.6875 %\n",
      "79.8828125 %\n",
      "80.078125 %\n",
      "80.2734375 %\n",
      "80.46875 %\n",
      "80.6640625 %\n",
      "80.859375 %\n",
      "81.0546875 %\n",
      "81.25 %\n",
      "81.4453125 %\n",
      "81.640625 %\n",
      "81.8359375 %\n",
      "82.03125 %\n",
      "82.2265625 %\n",
      "82.421875 %\n",
      "82.6171875 %\n",
      "82.8125 %\n",
      "83.0078125 %\n",
      "83.203125 %\n",
      "83.3984375 %\n",
      "83.59375 %\n",
      "83.7890625 %\n",
      "83.984375 %\n",
      "84.1796875 %\n",
      "84.375 %\n",
      "84.5703125 %\n",
      "84.765625 %\n",
      "84.9609375 %\n",
      "85.15625 %\n",
      "85.3515625 %\n",
      "85.546875 %\n",
      "85.7421875 %\n",
      "85.9375 %\n",
      "86.1328125 %\n",
      "86.328125 %\n",
      "86.5234375 %\n",
      "86.71875 %\n",
      "86.9140625 %\n",
      "87.109375 %\n",
      "87.3046875 %\n",
      "87.5 %\n",
      "87.6953125 %\n",
      "87.890625 %\n",
      "88.0859375 %\n",
      "88.28125 %\n",
      "88.4765625 %\n",
      "88.671875 %\n",
      "88.8671875 %\n",
      "89.0625 %\n",
      "89.2578125 %\n",
      "89.453125 %\n",
      "89.6484375 %\n",
      "89.84375 %\n",
      "90.0390625 %\n",
      "90.234375 %\n",
      "90.4296875 %\n",
      "Error processing D:\\media\\israel_1602.mp4: Failed to load audio: ffmpeg version 2025-01-22-git-e20ee9f9ae-full_build-www.gyan.dev Copyright (c) 2000-2025 the FFmpeg developers\r\n",
      "  built with gcc 14.2.0 (Rev1, Built by MSYS2 project)\r\n",
      "  configuration: --enable-gpl --enable-version3 --enable-static --disable-w32threads --disable-autodetect --enable-fontconfig --enable-iconv --enable-gnutls --enable-lcms2 --enable-libxml2 --enable-gmp --enable-bzlib --enable-lzma --enable-libsnappy --enable-zlib --enable-librist --enable-libsrt --enable-libssh --enable-libzmq --enable-avisynth --enable-libbluray --enable-libcaca --enable-libdvdnav --enable-libdvdread --enable-sdl2 --enable-libaribb24 --enable-libaribcaption --enable-libdav1d --enable-libdavs2 --enable-libopenjpeg --enable-libquirc --enable-libuavs3d --enable-libxevd --enable-libzvbi --enable-libqrencode --enable-librav1e --enable-libsvtav1 --enable-libvvenc --enable-libwebp --enable-libx264 --enable-libx265 --enable-libxavs2 --enable-libxeve --enable-libxvid --enable-libaom --enable-libjxl --enable-libvpx --enable-mediafoundation --enable-libass --enable-frei0r --enable-libfreetype --enable-libfribidi --enable-libharfbuzz --enable-liblensfun --enable-libvidstab --enable-libvmaf --enable-libzimg --enable-amf --enable-cuda-llvm --enable-cuvid --enable-dxva2 --enable-d3d11va --enable-d3d12va --enable-ffnvcodec --enable-libvpl --enable-nvdec --enable-nvenc --enable-vaapi --enable-libshaderc --enable-vulkan --enable-libplacebo --enable-opencl --enable-libcdio --enable-libgme --enable-libmodplug --enable-libopenmpt --enable-libopencore-amrwb --enable-libmp3lame --enable-libshine --enable-libtheora --enable-libtwolame --enable-libvo-amrwbenc --enable-libcodec2 --enable-libilbc --enable-libgsm --enable-liblc3 --enable-libopencore-amrnb --enable-libopus --enable-libspeex --enable-libvorbis --enable-ladspa --enable-libbs2b --enable-libflite --enable-libmysofa --enable-librubberband --enable-libsoxr --enable-chromaprint\r\n",
      "  libavutil      59. 55.100 / 59. 55.100\r\n",
      "  libavcodec     61. 31.101 / 61. 31.101\r\n",
      "  libavformat    61.  9.106 / 61.  9.106\r\n",
      "  libavdevice    61.  4.100 / 61.  4.100\r\n",
      "  libavfilter    10.  6.101 / 10.  6.101\r\n",
      "  libswscale      8. 13.100 /  8. 13.100\r\n",
      "  libswresample   5.  4.100 /  5.  4.100\r\n",
      "  libpostproc    58.  4.100 / 58.  4.100\r\n",
      "Input #0, mov,mp4,m4a,3gp,3g2,mj2, from 'D:\\media\\israel_1602.mp4':\r\n",
      "  Metadata:\r\n",
      "    major_brand     : isom\r\n",
      "    minor_version   : 1\r\n",
      "    compatible_brands: isomiso4\r\n",
      "    creation_time   : 2024-11-24T14:41:21.000000Z\r\n",
      "  Duration: 00:00:10.70, start: 0.000000, bitrate: 796 kb/s\r\n",
      "  Stream #0:0[0x1](und): Video: h264 (Main) (avc1 / 0x31637661), yuv420p(progressive), 848x474, 792 kb/s, SAR 1:1 DAR 424:237, 30 fps, 30 tbr, 9000k tbn (default)\r\n",
      "    Metadata:\r\n",
      "      handler_name    : Twitter-vork muxer\r\n",
      "      vendor_id       : [0][0][0][0]\r\n",
      "Output #0, s16le, to 'pipe:':\r\n",
      "[out#0/s16le @ 0000021ea000cc00] Output file does not contain any stream\r\n",
      "Error opening output file -.\r\n",
      "Error opening output files: Invalid argument\r\n",
      "\n",
      "90.625 %\n",
      "90.8203125 %\n",
      "91.015625 %\n",
      "91.2109375 %\n",
      "91.40625 %\n",
      "91.6015625 %\n",
      "91.796875 %\n",
      "91.9921875 %\n",
      "92.1875 %\n",
      "92.3828125 %\n",
      "92.578125 %\n",
      "92.7734375 %\n",
      "92.96875 %\n",
      "93.1640625 %\n",
      "93.359375 %\n",
      "93.5546875 %\n",
      "93.75 %\n",
      "93.9453125 %\n",
      "94.140625 %\n",
      "94.3359375 %\n",
      "94.53125 %\n",
      "94.7265625 %\n",
      "94.921875 %\n",
      "95.1171875 %\n",
      "95.3125 %\n",
      "95.5078125 %\n",
      "95.703125 %\n",
      "95.8984375 %\n",
      "96.09375 %\n",
      "96.2890625 %\n",
      "96.484375 %\n",
      "96.6796875 %\n"
     ]
    }
   ],
   "execution_count": 11
  },
  {
   "metadata": {
    "ExecuteTime": {
     "end_time": "2025-02-01T12:52:33.049027Z",
     "start_time": "2025-02-01T12:52:30.744183Z"
    }
   },
   "cell_type": "code",
   "source": [
    "file_path1 = os.path.join(output_dir, \"data_with_Whisper_text.xlsx\")\n",
    "df.to_excel(file_path1, index=False)"
   ],
   "id": "53996cc5baaa53",
   "outputs": [],
   "execution_count": 12
  },
  {
   "metadata": {
    "ExecuteTime": {
     "end_time": "2025-02-01T13:18:41.802349Z",
     "start_time": "2025-02-01T13:18:41.094105Z"
    }
   },
   "cell_type": "code",
   "source": "df.sample(5)",
   "id": "ced53e202e4789e4",
   "outputs": [
    {
     "data": {
      "text/plain": [
       "      Message_ID                Date  \\\n",
       "2372        1585 2024-11-23 05:17:38   \n",
       "290        13392 2025-01-21 12:37:29   \n",
       "1796       12627 2024-11-24 13:29:02   \n",
       "2232        1438 2024-11-13 09:56:33   \n",
       "590         6421 2025-01-15 20:07:51   \n",
       "\n",
       "                                                Message  \\\n",
       "2372  ⚠️BREAKING: Masked Hamas supporters fanatics t...   \n",
       "290   🇵🇸🇮🇱⚡- Israeli forces have blocked all roads i...   \n",
       "1796  After some 160 rockets were launched from Leba...   \n",
       "2232  ⚡️ JUST IN:\\nThe IDF eliminated the Hezbollah ...   \n",
       "590   🔹 Citizens of Aden, which is under the occupat...   \n",
       "\n",
       "                                          Text_Comments  \\\n",
       "2372  ['Olá meus terroristas eu mato tudo agora mand...   \n",
       "290                                                 NaN   \n",
       "1796                                                NaN   \n",
       "2232  [\"Israhell chosen people of God? .. But kill i...   \n",
       "590                                                 NaN   \n",
       "\n",
       "      Text_Positive_Reactions  Text_Negative_Reactions  \\\n",
       "2372                        9                       22   \n",
       "290                         5                       33   \n",
       "1796                       43                        9   \n",
       "2232                        0                        0   \n",
       "590                         0                        1   \n",
       "\n",
       "                         Media File  \\\n",
       "2372       D:\\media\\israel_1585.mp4   \n",
       "290                             NaN   \n",
       "1796                            NaN   \n",
       "2232                            NaN   \n",
       "590   D:\\media\\gazanewss01_6421.mp4   \n",
       "\n",
       "                                         Media_Comments  \\\n",
       "2372  ['Olá meus terroristas eu mato tudo agora mand...   \n",
       "290                                                 NaN   \n",
       "1796                                                NaN   \n",
       "2232                                                NaN   \n",
       "590                                                 NaN   \n",
       "\n",
       "      Media_Positive_Reactions  Media_Negative_Reactions  \\\n",
       "2372                         9                        22   \n",
       "290                          0                         0   \n",
       "1796                         0                         0   \n",
       "2232                         0                         0   \n",
       "590                          0                         1   \n",
       "\n",
       "                              Extracted_Text_from_Video  \n",
       "2372   aan Now I'm just walking too long, hold still...  \n",
       "290                                                      \n",
       "1796                                                     \n",
       "2232                                                     \n",
       "590    عذا العهلة fil<|ar|> وليه القestruct رواحنا و...  "
      ],
      "text/html": [
       "<div>\n",
       "<style scoped>\n",
       "    .dataframe tbody tr th:only-of-type {\n",
       "        vertical-align: middle;\n",
       "    }\n",
       "\n",
       "    .dataframe tbody tr th {\n",
       "        vertical-align: top;\n",
       "    }\n",
       "\n",
       "    .dataframe thead th {\n",
       "        text-align: right;\n",
       "    }\n",
       "</style>\n",
       "<table border=\"1\" class=\"dataframe\">\n",
       "  <thead>\n",
       "    <tr style=\"text-align: right;\">\n",
       "      <th></th>\n",
       "      <th>Message_ID</th>\n",
       "      <th>Date</th>\n",
       "      <th>Message</th>\n",
       "      <th>Text_Comments</th>\n",
       "      <th>Text_Positive_Reactions</th>\n",
       "      <th>Text_Negative_Reactions</th>\n",
       "      <th>Media File</th>\n",
       "      <th>Media_Comments</th>\n",
       "      <th>Media_Positive_Reactions</th>\n",
       "      <th>Media_Negative_Reactions</th>\n",
       "      <th>Extracted_Text_from_Video</th>\n",
       "    </tr>\n",
       "  </thead>\n",
       "  <tbody>\n",
       "    <tr>\n",
       "      <th>2372</th>\n",
       "      <td>1585</td>\n",
       "      <td>2024-11-23 05:17:38</td>\n",
       "      <td>⚠️BREAKING: Masked Hamas supporters fanatics t...</td>\n",
       "      <td>['Olá meus terroristas eu mato tudo agora mand...</td>\n",
       "      <td>9</td>\n",
       "      <td>22</td>\n",
       "      <td>D:\\media\\israel_1585.mp4</td>\n",
       "      <td>['Olá meus terroristas eu mato tudo agora mand...</td>\n",
       "      <td>9</td>\n",
       "      <td>22</td>\n",
       "      <td>aan Now I'm just walking too long, hold still...</td>\n",
       "    </tr>\n",
       "    <tr>\n",
       "      <th>290</th>\n",
       "      <td>13392</td>\n",
       "      <td>2025-01-21 12:37:29</td>\n",
       "      <td>🇵🇸🇮🇱⚡- Israeli forces have blocked all roads i...</td>\n",
       "      <td>NaN</td>\n",
       "      <td>5</td>\n",
       "      <td>33</td>\n",
       "      <td>NaN</td>\n",
       "      <td>NaN</td>\n",
       "      <td>0</td>\n",
       "      <td>0</td>\n",
       "      <td></td>\n",
       "    </tr>\n",
       "    <tr>\n",
       "      <th>1796</th>\n",
       "      <td>12627</td>\n",
       "      <td>2024-11-24 13:29:02</td>\n",
       "      <td>After some 160 rockets were launched from Leba...</td>\n",
       "      <td>NaN</td>\n",
       "      <td>43</td>\n",
       "      <td>9</td>\n",
       "      <td>NaN</td>\n",
       "      <td>NaN</td>\n",
       "      <td>0</td>\n",
       "      <td>0</td>\n",
       "      <td></td>\n",
       "    </tr>\n",
       "    <tr>\n",
       "      <th>2232</th>\n",
       "      <td>1438</td>\n",
       "      <td>2024-11-13 09:56:33</td>\n",
       "      <td>⚡️ JUST IN:\\nThe IDF eliminated the Hezbollah ...</td>\n",
       "      <td>[\"Israhell chosen people of God? .. But kill i...</td>\n",
       "      <td>0</td>\n",
       "      <td>0</td>\n",
       "      <td>NaN</td>\n",
       "      <td>NaN</td>\n",
       "      <td>0</td>\n",
       "      <td>0</td>\n",
       "      <td></td>\n",
       "    </tr>\n",
       "    <tr>\n",
       "      <th>590</th>\n",
       "      <td>6421</td>\n",
       "      <td>2025-01-15 20:07:51</td>\n",
       "      <td>🔹 Citizens of Aden, which is under the occupat...</td>\n",
       "      <td>NaN</td>\n",
       "      <td>0</td>\n",
       "      <td>1</td>\n",
       "      <td>D:\\media\\gazanewss01_6421.mp4</td>\n",
       "      <td>NaN</td>\n",
       "      <td>0</td>\n",
       "      <td>1</td>\n",
       "      <td>عذا العهلة fil&lt;|ar|&gt; وليه القestruct رواحنا و...</td>\n",
       "    </tr>\n",
       "  </tbody>\n",
       "</table>\n",
       "</div>"
      ]
     },
     "execution_count": 13,
     "metadata": {},
     "output_type": "execute_result"
    }
   ],
   "execution_count": 13
  },
  {
   "metadata": {},
   "cell_type": "code",
   "outputs": [],
   "execution_count": null,
   "source": "",
   "id": "ed407e3f247cb70b"
  }
 ],
 "metadata": {
  "kernelspec": {
   "display_name": "Python 3",
   "language": "python",
   "name": "python3"
  },
  "language_info": {
   "codemirror_mode": {
    "name": "ipython",
    "version": 2
   },
   "file_extension": ".py",
   "mimetype": "text/x-python",
   "name": "python",
   "nbconvert_exporter": "python",
   "pygments_lexer": "ipython2",
   "version": "2.7.6"
  }
 },
 "nbformat": 4,
 "nbformat_minor": 5
}
